<?xml version="1.0" encoding="utf-8"?>
<!-- Generator: Adobe Illustrator 18.1.1, SVG Export Plug-In . SVG Version: 6.00 Build 0)  -->
<svg version="1.1" id="Layer_1" xmlns="http://www.w3.org/2000/svg" xmlns:xlink="http://www.w3.org/1999/xlink" x="0px" y="0px"
	 viewBox="288.2 399 17.5 27.1" enable-background="new 288.2 399 17.5 27.1" xml:space="preserve">
<line fill="none" stroke="#C5C5C5" stroke-width="0.82" x1="290.5" y1="402.6" x2="293.4" y2="402.6"/>
<line fill="none" stroke="#C5C5C5" stroke-width="0.82" x1="290.5" y1="403.8" x2="293.4" y2="403.8"/>
<line fill="none" stroke="#C5C5C5" stroke-width="0.82" x1="290.5" y1="405" x2="293.4" y2="405"/>
<line fill="none" stroke="#C5C5C5" stroke-width="0.82" x1="290.5" y1="406.2" x2="293.4" y2="406.2"/>
<line fill="none" stroke="#C5C5C5" stroke-width="0.82" x1="290.5" y1="407.3" x2="293.4" y2="407.3"/>
<path fill="#C4003E" d="M291.9,402.6c0.4,0,0.7-0.4,0.7-0.7c0-0.4-0.4-0.7-0.7-0.7c-0.4,0-0.7,0.4-0.7,0.7
	C291.2,402.2,291.5,402.6,291.9,402.6"/>
<polygon fill="#706F6F" points="305.7,399 288.2,399 288.2,423.9 292.2,423.9 292.2,423.3 288.8,423.3 288.8,399.6 305.2,399.6 
	305.2,423.3 301.8,423.3 301.8,423.9 305.7,423.9 "/>
<polygon fill="#706F6F" points="299.1,420.9 299.1,415.5 294.8,415.5 294.8,420.9 291.8,420.9 297,426.1 297,426.1 302.1,420.9 "/>
</svg>
