<svg xmlns="http://www.w3.org/2000/svg" viewBox="0 0 24.8 38.3"><defs><style>.cls-1{fill:none;stroke:#c5c5c5;stroke-width:0.82px;}.cls-2{fill:#c4003e;}.cls-3{fill:#706f6f;}</style></defs><title>Asset 1</title><g id="Layer_2" data-name="Layer 2"><g id="Layer_1-2" data-name="Layer 1"><line class="cls-1" x1="17.5" y1="5.1" x2="21.6" y2="5.1"/><line class="cls-1" x1="17.5" y1="6.8" x2="21.6" y2="6.8"/><line class="cls-1" x1="17.5" y1="8.5" x2="21.6" y2="8.5"/><line class="cls-1" x1="17.5" y1="10.2" x2="21.6" y2="10.2"/><line class="cls-1" x1="17.5" y1="11.8" x2="21.6" y2="11.8"/><path class="cls-2" d="M19.6,5.1a1.08,1.08,0,0,0,1-1,1,1,0,0,0-1-1,1.08,1.08,0,0,0-1,1,1,1,0,0,0,1,1"/><polygon class="cls-3" points="0 35.2 5.6 35.2 5.6 34.4 0.8 34.4 0.8 0.9 24 0.9 24 34.4 19.1 34.4 19.1 35.2 24.8 35.2 24.8 0 0 0 0 35.2"/><polygon class="cls-3" points="5.1 31 12.4 38.3 12.4 38.3 19.7 31 15.4 31 15.4 23.4 9.4 23.4 9.4 31 5.1 31"/></g></g></svg>