<?xml version="1.0" encoding="utf-8"?>
<!-- Generator: Adobe Illustrator 20.1.0, SVG Export Plug-In . SVG Version: 6.00 Build 0)  -->
<svg version="1.1" id="Layer_1" xmlns="http://www.w3.org/2000/svg" xmlns:xlink="http://www.w3.org/1999/xlink" x="0px" y="0px"
	 viewBox="0 0 140.2 301.6" style="enable-background:new 0 0 140.2 301.6;" xml:space="preserve">
<style type="text/css">
	.st0{fill:#1D1D1B;}
	.st1{fill:#C4003E;}
</style>
<path class="st0" d="M26.6,284.4c1.9,0.3,3.5,0.1,5.8-0.1c3.7-0.5,10.1-2.7,11-6.8c0.5-2.3-1.3-3.9-4.1-3.8c-1.5,0-4.1,0.9-5.3,1.8
	c0.4,0.6,0.9,1.4,1.3,2.3c0.5,1.8,0.4,3.2,0.3,3.2s-0.1-1.1-1-3.1c-0.4-0.8-1.1-1.6-1.5-2C30.5,277.4,29,280.7,26.6,284.4
	L26.6,284.4z M13.9,277.5c0,3.2,4.6,5.3,9,6.3c3.1-4.1,6.2-7.7,9.3-9c-1.9-1.3-5.1-3-9.8-3C16.8,271.8,13.9,274.5,13.9,277.5
	L13.9,277.5z M12.9,296.8c-1-0.2-2.4-0.5-3.8-0.4c-2.8,0.1-5.2,1.3-5.3,2.5c-0.1,0.8,1.1,1.2,2.1,1.1C8,300,11.1,298.6,12.9,296.8
	L12.9,296.8z M13,277.6c0-3.5,3.5-6.8,9.8-6.8c4.9,0,8.1,1.5,10.6,3.6c1.7-0.7,4.2-1.2,6-1.3c3.6-0.1,6.6,1.8,6,4.9
	c-0.9,4.6-9.1,6.9-13,7.4c-2.3,0.2-4.4,0.3-6.4,0c-4.4,6.7-6.6,7.7-10.9,10.7c0.9,0.1,1.5,0.4,3.5,0.9c2.4,0.6,5.5,1.3,6.9,1.3
	c3.9,0,6.7-0.9,10.8-4.6c0.3-0.3,0.9-0.8,1-0.6c0.2,0.1,1-0.1,0.8,0c-4.5,4.6-8.6,7.5-13,7.5c-2.5,0-5.3-0.6-7.2-1.4
	c-2.2-0.9-3.2-1.8-4-2c-1.6,1.3-4.9,3.5-9,3.6c-2.7,0.1-4.1-0.6-4-1.6c0.1-2.3,6.1-3.6,10-3.6c1,0,2.7,0.1,3.1,0.3
	c3.7-3.6,4.4-5.8,8.3-11.2C17.6,283.7,13,281.2,13,277.6L13,277.6z"/>
<path class="st0" d="M65.6,300.4c-1.2,0-2-0.7-1.9-1.7c0.1-1.5,1.6-3.3,2.8-4.7c1-1.2,1.9-2.3,2.8-3.3c0.3-0.3,0.4-0.7,0.1-0.9
	c-0.3-0.2-1,0.2-1.4,0.4c-1.2,0.6-3,1.7-5.1,3.4c-2.9,2.3-4.5,3.8-7.3,6.1c-0.6,0.5-1.3,0.6-2,0.6c-0.9,0-1.4-0.1-0.9-1.1
	c0.7-1.3,1.6-2.9,2.9-4.5c1-1.4,1.6-2.1,2.7-3.5c0.4-0.5,0.5-0.9,0.4-1.1s-0.4-0.1-0.7,0.1c-0.7,0.3-1.8,1.1-2.6,1.8
	c-1,0.9-2,1.8-3,2.7c-0.3,0.3-1,0.5-1.1,0.4s0.2-0.6,0.5-0.8c0.9-0.9,2.6-2.5,3.7-3.5c1.6-1.3,3.2-2.3,4.6-2.3
	c1.2,0,1.6,0.9,1.6,1.5c0,0.8-0.7,1.9-1.4,2.8c-0.8,1-1.5,2.1-2.3,3.1c-0.1,0.1-0.8,1-0.3,0.8c0.1-0.1,0.2-0.1,0.2-0.2
	c0.2-0.2,0.3-0.3,0.5-0.4c0.3-0.3,0.7-0.6,1-0.9c0.8-0.7,1.4-1.2,2.2-1.8c0.5-0.4,1-0.8,1.5-1.2c2.3-1.7,5.3-3.7,7.3-3.7
	c1.4,0,2.2,0.7,2,1.8c-0.1,1.2-1.6,2.7-2.6,4.1c-1,1.3-1.8,2.2-2.2,2.9c-0.5,0.8-0.5,1.3-0.3,1.5c0.3,0.3,1,0.1,1.6-0.2
	c0.8-0.3,1.8-1.1,3.1-2.1c1-0.8,2.4-2.1,3.2-2.8c0.3-0.3,1.1-1,1.3-0.8c0.1,0.1-0.6,1.1-0.8,1.3c-0.8,0.7-2.6,2.4-4,3.5
	C70.5,298.8,68,300.4,65.6,300.4L65.6,300.4z"/>
<path class="st0" d="M77.6,299.1c1.2,0,3.4-1.2,5.1-2.8c2.1-1.9,4.5-4.4,4.5-5.5c0.1-0.9-0.5-1.2-1.2-1.2c-1.3,0-3.4,1.5-5.7,3.9
	c-2.5,2.5-3.7,4.1-3.7,5C76.8,298.9,77,299.1,77.6,299.1L77.6,299.1z M84.9,300.4c-1.2,0-1.8-0.6-1.8-1.4c-0.1-0.7,0.3-1.7,0.9-2.4
	h-0.1c-1.8,1.6-4.7,3.7-7.2,3.8c-1.4,0.1-2.9-0.5-2.7-2.7c0.1-0.9,0.7-2.2,1.8-3.6h0c-0.2,0.2-0.4,0.4-0.6,0.6
	c-0.3,0.3-0.7,0.5-0.9,0.4c-0.1-0.2,0.2-0.5,0.5-0.8c0.7-0.7,1.5-1.3,2.2-1.8s2-1.4,3.3-2.1c2.3-1.3,4.7-2.1,6.6-1.9
	c1.2,0.2,1.7,1.3,1.5,2.1h0.1c3-4,2.5-3.3,5.9-7.2c2.3-2.7,6.5-8,9.3-10.7c0.7-0.7,1.5-1.1,2.4-1.1c0.7,0,0.9,0.1,1,0.5
	c-1.8,1.8-5.3,6.2-9,10.7c-2.1,2.6-2,2-5.8,6.9c-2,2.7-4.8,6.6-5.4,7.7c-0.5,0.7-0.5,1.3-0.3,1.5c0.4,0.4,1.3,0,2-0.4
	s1.7-1.1,2.6-1.9c1.2-1,2.4-1.9,3.4-2.8c0.6-0.5,1-0.9,1.7-1.3c0.6-0.4,1.1-0.8,1.7-1.2c0,0,0.3-0.2,0.4-0.2c0.3,0.2-3,2.9-3.1,3.1
	c-0.8,0.8-2.8,2.4-4.4,3.7C89.2,298.9,87,300.4,84.9,300.4L84.9,300.4z"/>
<path class="st0" d="M123.8,300.5c-1.2,0-2-0.7-1.9-1.7c0.1-1.5,1.7-3.4,2.8-4.8c1-1.2,1.9-2.3,2.8-3.3c0.3-0.3,0.4-0.7,0.1-0.9
	c-0.3-0.2-0.9,0.2-1.4,0.4c-1.2,0.6-3,1.7-5.1,3.4c-2.9,2.3-4.6,4.1-7.5,6.3c-0.6,0.5-1.3,0.6-2,0.6c-0.9,0-1.4-0.1-0.8-1.1
	c0.7-1.3,1.8-3.1,3-4.7c1-1.4,1.6-2.1,2.7-3.5c0.4-0.5,0.6-0.9,0.4-1.1c-0.1-0.3-0.7-0.1-1,0.1c-0.7,0.3-1.5,1.1-2.3,1.8
	c-1,0.9-2.3,2.1-3.3,3c-0.3,0.3-0.6,0.3-0.8,0.2c-0.1-0.1,0.2-0.6,0.5-0.8c0.9-0.9,2.6-2.5,3.7-3.5c1.6-1.3,3.2-2.3,4.6-2.3
	c1.2,0,1.6,0.9,1.6,1.5c0,0.8-0.7,1.9-1.4,2.8c-0.8,1-1.6,2.1-2.3,3.1c-0.1,0.1-0.2,0.3-0.3,0.4c-0.1,0.1-0.3,0.4,0,0.3
	c0.1,0,0.2-0.1,0.2-0.2c0.2-0.2,0.3-0.3,0.5-0.4c0.4-0.3,0.7-0.6,1-0.9c0.8-0.7,1.5-1.3,2.3-1.9c0.5-0.4,1-0.8,1.5-1.2
	c2.3-1.7,5.2-3.6,7.1-3.6c1.4,0,2.2,0.7,2,1.8c-0.1,1.2-1.6,2.7-2.6,4.1c-1,1.3-1.9,2.3-2.3,3c-0.5,0.8-0.5,1.3-0.3,1.5
	c0.3,0.3,1,0.1,1.6-0.2c0.8-0.3,1.9-1.2,3.2-2.2c1-0.8,2.4-2.1,3.2-2.8c0.3-0.3,0.7-0.5,0.8-0.3c0.1,0.1-0.4,0.7-0.6,0.9
	c-0.8,0.7-2.6,2.5-4,3.5C128.4,298.8,126,300.5,123.8,300.5L123.8,300.5z"/>
<path class="st0" d="M103.2,295.8c-2.2,2.1-4.4,3.5-5.8,3.5c-0.7,0-1-0.5-0.9-1.1c0.2-1.3,1.7-3.5,3.5-5.3c0.3-0.3,0.7-0.7,1-1
	c1-0.9,2.8-2.5,4.3-2.7c2-0.3,1.6,1.4,0.6,3.3C105.1,293.7,104,295.2,103.2,295.8 M111.2,293.4c-0.1-0.2-0.5,0.1-0.8,0.4
	c-0.7,0.5-1.4,1.3-2.3,1.9c-0.9,0.7-1.8,1.1-2.2,1.1c-0.4,0.1-1,0.1-1.2,0c2-1.9,3.5-3.8,3.7-5.4c0.1-1-0.2-1.8-0.8-2.3
	c0,0-1.1-1.6-5.4,0h-0.1c-1,0.3-2,0.8-3.1,1.3c-1.3,0.7-2.3,1.4-3.1,2c-0.7,0.5-1.6,1.3-2.3,1.9c-0.3,0.3-0.6,0.5-0.5,0.7
	c0.1,0.1,0.5-0.1,0.9-0.4c0.5-0.4,0.9-0.8,1.3-1.3v0.1c-0.9,1.1-1.7,2.6-1.8,4.1c-0.1,1.9,1.2,2.9,3.2,2.9c2.7,0,5.5-1.8,7.2-3.1
	c0.4,0.3,1.6,0.3,2.1,0.1c0.6-0.1,1.6-0.5,2.6-1.3c0.9-0.6,1.7-1.4,2.3-2C111.2,293.9,111.5,293.5,111.2,293.4"/>
<path class="st0" d="M45,295.8c-2.1,2.2-4.7,3.5-6.1,3.5c-0.7,0-1-0.5-0.9-1.1c0.2-1.3,2-3.5,3.8-5.3c0.2-0.2,0.4-0.4,0.6-0.6
	c0.9-0.9,3.1-2.8,4.7-3.1c1.9-0.3,1.8,1.4,0.8,2.8C47.1,293.4,45.6,295.3,45,295.8 M53,293.4c-0.1-0.2-0.5,0.1-0.8,0.4
	c-0.7,0.5-1.4,1.3-2.3,1.9c-0.9,0.7-1.8,1.1-2.2,1.1c-0.4,0.1-1,0.1-1.2,0c2-1.9,3.5-3.8,3.7-5.4c0.1-1-0.2-1.8-0.8-2.3l0,0
	c-0.2-0.2-1.4-1.3-5-0.1c-1.1,0.3-2.3,0.8-3.6,1.5c-1.3,0.7-2.6,1.6-3.3,2.1c-0.7,0.5-1.5,1.1-2.2,1.8c-0.3,0.3-0.6,0.6-0.5,0.8
	c0.1,0.1,0.5-0.1,0.9-0.4c0.5-0.4,0.9-0.8,1.3-1.3v0.1c-0.9,1.1-1.7,2.6-1.8,4.1c-0.1,1.9,1.2,2.9,3.2,2.9c2.7,0,5.8-1.6,7.5-3
	c0.4,0.3,1.3,0.3,1.8,0.1c0.6-0.1,1.7-0.7,2.8-1.5c0.9-0.6,1.7-1.4,2.3-2C53.1,293.8,53.2,293.5,53,293.4"/>
<path class="st0" d="M15.4,113.8h0.4c1.2,0,2.6-0.2,2.6-1.8c0-1.5-1.4-1.8-2.6-1.8h-0.4V113.8z M23.5,121.6h-4.6l-3.5-5.4l0,0v5.4
	h-3.6v-14.1h5.5c2.8,0,4.9,1.3,4.9,4.4c0,2-1.1,3.6-3.1,4L23.5,121.6z"/>
<path class="st0" d="M40.8,114.3c0,2.4,1.8,4.2,4,4.2s4-1.8,4-4.2c0-2-1.8-3.7-4-3.7C42.5,110.6,40.8,112.4,40.8,114.3 M52.5,114.3
	c0,4.6-3.3,7.8-7.8,7.8s-7.8-3.2-7.8-7.8c0-4.3,3.8-7.3,7.8-7.3C48.9,107,52.5,110,52.5,114.3"/>
<polygon class="st0" points="66,107.5 70.4,107.5 73,111.3 75.6,107.5 80,107.5 74.9,114.8 74.9,121.6 71.1,121.6 71.1,114.8 "/>
<path class="st0" d="M98.5,111.8L98.5,111.8l-1.6,4.5h3.1L98.5,111.8z M95.9,119.2l-1,2.5H91l5.4-14.2h4l5.3,14.2h-3.9l-0.9-2.5
	H95.9z"/>
<polygon class="st0" points="123.5,118.5 128,118.5 128,121.6 119.9,121.6 119.9,107.5 123.5,107.5 "/>
<path class="st0" d="M21.9,170.8c-0.8-1-2-1.6-3.2-1.6c-2.3,0-3.8,1.7-3.8,3.9c0,2.2,1.5,3.9,3.8,3.9c1.2,0,2.4-0.6,3.2-1.5v4.4
	c-1.2,0.4-2.1,0.7-3.3,0.7c-2,0-3.9-0.8-5.3-2.1c-1.6-1.4-2.3-3.3-2.3-5.4c0-1.9,0.7-3.8,2.1-5.2c1.4-1.4,3.4-2.3,5.4-2.3
	c1.2,0,2.3,0.3,3.4,0.7L21.9,170.8L21.9,170.8z"/>
<path class="st0" d="M32.5,172.9c0,2.4,1.8,4.2,4,4.2s4-1.8,4-4.2c0-2-1.8-3.7-4-3.7C34.4,169.1,32.5,170.9,32.5,172.9 M44.5,172.9
	c0,4.6-3.3,7.8-7.8,7.8s-7.8-3.2-7.8-7.8c0-4.3,3.8-7.3,7.8-7.3C40.6,165.6,44.5,168.6,44.5,172.9"/>
<polygon class="st0" points="55,177.1 59.5,177.1 59.5,180.2 51.4,180.2 51.4,166 55,166 "/>
<polygon class="st0" points="70.2,177.1 74.8,177.1 74.8,180.2 66.6,180.2 66.6,166 70.2,166 "/>
<polygon class="st0" points="85.6,169.2 85.6,171.5 89.8,171.5 89.8,174.6 85.6,174.6 85.6,177.1 90,177.1 90,180.2 82,180.2 
	82,166 90,166 90,169.2 "/>
<path class="st0" d="M112.1,172.3c0,2.1-0.2,3.8-1.4,5.6c-1.4,1.9-3.5,2.8-5.8,2.8c-4.5,0-7.6-3-7.6-7.5c0-4.6,3.1-7.6,7.7-7.6
	c2.9,0,5.2,1.3,6.4,4l-3.5,1.5c-0.5-1.4-1.6-2.3-3.1-2.3c-2.4,0-3.7,2.3-3.7,4.5s1.3,4.4,3.7,4.4c1.6,0,2.8-0.8,3-2.5h-3v-2.9H112.1
	z"/>
<polygon class="st0" points="123,169.2 123,171.5 127.1,171.5 127.1,174.6 123,174.6 123,177.1 127.4,177.1 127.4,180.2 
	119.2,180.2 119.2,166 127.4,166 127.4,169.2 "/>
<path class="st0" d="M14.9,233c0,2.4,1.8,4.2,4,4.2s4-1.8,4-4.2c0-2-1.8-3.7-4-3.7S14.9,231,14.9,233 M26.6,233
	c0,4.6-3.3,7.8-7.8,7.8s-7.8-3.2-7.8-7.8c0-4.3,3.8-7.3,7.8-7.3C23,225.7,26.6,228.7,26.6,233"/>
<polygon class="st0" points="34.9,229.3 34.9,231.7 39,231.7 39,234.8 34.9,234.8 34.9,240.3 31.1,240.3 31.1,226.2 39.4,226.2 
	39.4,229.3 "/>
<polygon class="st0" points="54,226.2 57.6,226.2 60.5,233.7 63.5,226.2 67.2,226.2 69.4,240.3 65.6,240.3 64.6,232.2 64.5,232.2 
	61.1,240.3 59.8,240.3 56.5,232.2 56.5,232.2 55.2,240.3 51.5,240.3 "/>
<path class="st0" d="M86.6,226.2v8c0,1.8-0.1,3.6-1.5,5c-1.2,1.2-3,1.6-4.7,1.6s-3.5-0.4-4.7-1.6c-1.4-1.4-1.5-3.2-1.5-5v-8h3.7v7.5
	c0,1.8,0.1,3.9,2.5,3.9s2.5-2,2.5-3.9v-7.5H86.6z"/>
<path class="st0" d="M100,229.8c-0.7-0.6-1.5-0.9-2.4-0.9c-0.7,0-1.6,0.4-1.6,1.2c0,0.8,1,1.1,1.6,1.4l0.9,0.3
	c2,0.6,3.5,1.6,3.5,3.9c0,1.4-0.3,2.9-1.5,3.8c-1.1,0.9-2.6,1.3-4,1.3c-1.8,0-3.5-0.6-5-1.6l1.6-3c0.9,0.8,2,1.5,3.3,1.5
	c0.9,0,1.8-0.4,1.8-1.4s-1.4-1.4-2.2-1.6c-2.3-0.7-3.8-1.3-3.8-4c0-2.9,2-4.8,4.9-4.8c1.4,0,3.2,0.5,4.4,1.2L100,229.8z"/>
<rect x="107.6" y="226.2" class="st0" width="3.7" height="14.2"/>
<path class="st0" d="M127.4,230.9c-0.8-1-2-1.6-3.2-1.6c-2.3,0-3.8,1.7-3.8,3.9c0,2.2,1.5,3.9,3.8,3.9c1.2,0,2.4-0.6,3.2-1.5v4.4
	c-1.2,0.4-2.1,0.7-3.2,0.7c-2,0-3.9-0.8-5.3-2.1c-1.6-1.4-2.3-3.3-2.3-5.4c0-1.9,0.7-3.8,2.1-5.2c1.4-1.4,3.4-2.3,5.4-2.3
	c1.2,0,2.3,0.3,3.4,0.7v4.5H127.4z"/>
<path class="st1" d="M75.2,49.8c-0.3-0.2-0.6-0.6-0.8-1.1c-0.2,0.5-0.6,1.3-0.9,2.7c0,0,0.4,0.5,0.4,0.9
	C74.4,51,74.8,50.3,75.2,49.8 M72.1,51.6c0,0,0.4-0.3,0.8-0.4c0.1-0.4,0.2-0.9,0.3-1.3c-0.2-0.2-0.4-0.5-0.9-0.6
	C72.1,50.2,72.1,50.8,72.1,51.6 M61.8,54.3L61.8,54.3L61.8,54.3C61.8,54.2,61.8,54.2,61.8,54.3c0-0.1-0.1-0.2-0.1-0.2l0,0l0,0
	c-0.4,0.2-0.8,0.3-1.3,0.4l-0.2,0.1l0,0l0,0c0,0,0,0.1,0.1,0.2l0,0l0,0l0,0c0.1,0,0.2-0.1,0.3-0.1C61,54.5,61.4,54.4,61.8,54.3
	 M67.2,47.6c-0.3-0.8-0.6-1.4-0.9-2c0,0.5,0,1.1-0.3,1.7c0,0.1,0,0.2,0,0.3c0.2,0.3,0.4,0.7,0.6,1.1C66.5,48.5,66.6,48,67.2,47.6
	 M75,45.3c0.2-0.5,0.7-0.6,0.7-0.6h0.1v-0.1c0,0,0.2-0.4,0.8-0.4c0.1,0,0.2,0,0.4,0c0.6,0.1,1,0.5,1.2,0.7c0.1,0.1,0.1,0.2,0.1,0.3
	s0.1,0.2,0.1,0.2c0,0.2,0.1,0.3,0.1,0.5c0,0.4,0,0.7-0.1,1.1c-0.1,0.2-0.1,0.5-0.2,0.7c0,0.1-0.1,0.3-0.1,0.4
	C78,48.3,78,48.5,78,48.7c0,0.2,0,0.5,0.1,0.7l0.1,0.1c0.1,0,0.1-0.1,0.1-0.2c-0.1-0.3,0-0.6,0.2-1c0.1-0.1,0.1-0.2,0.2-0.4
	s0.2-0.5,0.3-0.7c0.2-0.4,0.3-0.8,0.3-1.3c0-0.2,0-0.4,0-0.6c0-0.1,0-0.2,0-0.3c0.1-0.1,0.3-0.1,0.4-0.1s0.1,0,0.2,0
	c0.3,0,0.6,0.2,0.7,0.4c0.1,0.1,0.1,0.3,0.2,0.4c-0.3-0.1-0.5-0.2-0.6-0.2s-0.1,0-0.2,0.1c0,0.1-0.1,0.1-0.1,0.2
	c0,0.1,0.1,0.3,0.3,0.3c0,0,0.4,0,0.6,0.6c0.1,0.3,0.1,0.6,0,0.9c-0.1,0.2-0.3,0.4-0.5,0.6c-0.1-0.2-0.2-0.5-0.4-0.6
	c0-0.1-0.1-0.1-0.2-0.1s-0.1,0-0.2,0.1s-0.1,0.3,0,0.4c0.1,0.1,0.2,0.3,0.3,0.6c0.1,0.5-0.1,0.8-0.5,1.1c-0.1,0.1-0.2,0.1-0.2,0.2
	c-0.2,0.2-0.3,0.6-0.2,0.9l0,0v0.1c-0.7-0.1-1.4-0.4-1.9-0.9c-0.2-0.2-0.3-0.4-0.4-0.6c-0.4-0.9,0.2-1.5,0.2-1.5
	c0.1-0.1,0.1-0.3,0-0.4c-0.1-0.1-0.1-0.1-0.2-0.1s-0.1,0-0.2,0.1s-0.2,0.3-0.3,0.5v0.1c0,0.1,0,0.1-0.1,0.2c0,0.1,0,0.2-0.1,0.3
	c0,0.1,0,0.2,0,0.2c0,0.1,0,0.2,0,0.3v0.1l-0.1,0.1c-0.3-0.3-0.6-0.8-0.7-1.4c-0.1-0.5,0-0.9,0.2-1.2c0.4-0.5,1-0.6,1.1-0.7
	c0.1,0,0.2-0.2,0.2-0.3s-0.1-0.2-0.3-0.2c-0.1,0-1,0.1-1.5,0.9v0.1h-0.1C75,45.8,75,45.5,75,45.3 M74.5,47.7
	c0.3,1.7,1.2,2.1,1.6,2.2c0.7,0.9,1.9,1.6,2.9,1.6c0.2,0,0.4,0,0.6-0.1c0.1,0,0.1-0.1,0.2-0.1c0.1-0.1,0.1-0.1,0.1-0.1l0.1-0.1V51
	v-0.1v-0.1L80,50.7l-0.2-0.2l0,0l-0.1-0.1c0-0.1,0-0.1,0-0.2c0,0,0.1-0.1,0.2-0.1c0.3-0.2,0.8-0.6,0.8-1.3c0.4-0.2,0.7-0.6,0.9-1
	c0.2-0.5,0.2-1,0-1.5c0.1-0.4,0.1-1-0.3-1.5C81,44.3,80.5,44.1,80,44c-0.1,0-0.2,0-0.3,0c-0.4,0-0.7,0.1-0.9,0.2
	c-0.3-0.3-0.8-0.8-1.6-0.9c-0.2,0-0.4,0-0.5,0c-0.8,0-1.2,0.4-1.4,0.7c-0.2,0.1-0.7,0.4-0.9,0.9c-0.3,0.6-0.3,1.4,0.1,2.3
	C74.5,47.4,74.5,47.6,74.5,47.7 M70.4,50.8h0.7c0,0.2,0-0.9,0.1-1.3c-0.3,0-0.5,0.2-0.8,0.6L70.4,50.8z M73.9,45.6
	c-0.3,0.6-0.6,1.2-0.9,2c0.5,0.4,0.6,0.9,0.7,1.2c0.2-0.4,0.4-0.8,0.5-1.1c0-0.1,0-0.2,0-0.3C74,46.7,73.9,46.1,73.9,45.6
	 M67.5,40.2L67.5,40.2c0.5-0.6,0.9-0.9,1.5-0.9c0.2,0,0.5,0,0.7,0.1v0.1c0,0,0,0.1-0.1,0.2c0,0.1,0,0.2-0.1,0.3c0,0.2,0,0.4,0.1,0.6
	c0,0.1,0.1,0.2,0.1,0.3s0.1,0.1,0.1,0.3c0.1,0.2,0.1,0.3,0.2,0.4c0,0.1,0,0.1,0,0.2v0.1V42c0,0.1,0,0.2,0,0.3v0.2c0,0.2,0,0.4,0,0.6
	c0,0.2,0.1,0.4,0.2,0.5h0.1v-0.1c-0.2-0.3-0.1-0.6,0-0.9v-0.1c0-0.1,0.1-0.2,0.1-0.4V42v-0.1c0-0.1,0-0.2,0-0.3
	c0-0.2-0.1-0.3-0.1-0.5V41c0-0.1,0-0.2,0-0.2c0-0.1,0-0.1,0-0.2c0-0.1,0-0.3,0.1-0.4c0-0.1,0-0.1,0.1-0.2l0.1-0.1v-0.1
	c0-0.1,0-0.2,0-0.3c0.2-0.1,0.4-0.1,0.7-0.1c0.5,0,1,0.3,1.4,0.8l0.1,0.1c0.1,0,0.7,0.4,0.6,1.3c-0.2-0.5-0.7-0.9-1.2-1.2h-0.1
	c-0.1,0-0.2,0.1-0.2,0.1c0,0.1,0,0.1,0,0.2c0,0.1,0.1,0.1,0.1,0.1c0.6,0.3,1,0.8,1.1,1.4c0.1,0.4,0,1-0.3,1.3
	c-0.1-0.5-0.2-0.9-0.5-1.2c0,0-0.1-0.1-0.2-0.1s-0.1,0-0.2,0.1c0,0-0.1,0.1-0.1,0.2c0,0.1,0,0.1,0.1,0.2c0.4,0.4,0.5,1.1,0.3,1.6
	c-0.1,0.3-0.3,0.5-0.6,0.6c0.1-0.3,0-0.7-0.1-1c0-0.1-0.1-0.1-0.2-0.1h-0.1c-0.1,0.1-0.2,0.2-0.1,0.3c0.2,0.4,0.3,0.9-0.5,1.4
	c-0.1,0.1-0.3,0.2-0.4,0.3c-0.1-0.1-0.2-0.2-0.4-0.3c-0.8-0.5-0.7-1-0.5-1.4c0.1-0.1,0-0.3-0.1-0.3h-0.1c-0.1,0-0.2,0.1-0.2,0.1
	c-0.2,0.4-0.2,0.7-0.2,1.1c-0.3-0.2-0.4-0.4-0.5-0.7c-0.2-0.5-0.1-1.3,0.3-1.6c0.1-0.1,0.1-0.3,0-0.4c0,0-0.1-0.1-0.2-0.1
	s-0.1,0-0.2,0.1c-0.3,0.3-0.5,0.7-0.6,1.2c-0.2-0.4-0.3-0.9-0.3-1.3c0.1-0.6,0.5-1.2,1.1-1.4c0.1,0,0.1-0.1,0.1-0.1
	c0-0.1,0-0.1,0-0.2c0-0.1-0.1-0.1-0.2-0.1H68c-0.5,0.2-0.9,0.7-1.2,1.1C66.8,40.7,67.4,40.3,67.5,40.2 M67.4,44.7
	c0.2,0.7,0.9,1.2,1.6,1.4c0.1,0.1,0.2,0.2,0.3,0.2c0.3,0.1,0.3,0.4,0.3,0.6V47l0.1,0.1l0.1,0.1h0.1H70h0.1h0.1l0.1-0.1l0.1-0.1
	c0,0,0,0,0.1-0.2v-0.1c0,0,0-0.3,0.3-0.5c0.1-0.1,0.2-0.2,0.4-0.3c0.8-0.2,1.4-0.7,1.6-1.4c0.8-0.6,0.9-1.6,0.9-1.9
	c0.9-1.8-0.2-2.8-0.6-3c-0.6-0.8-1.4-1-1.9-1s-0.9,0.2-1.2,0.3c-0.3-0.1-0.7-0.3-1.2-0.3s-1.3,0.2-1.9,1c-0.3,0.3-1.4,1.2-0.5,3
	C66.5,43.3,66.6,44.2,67.4,44.7 M72.9,48l-0.1,0.3c-0.1,0.2-0.1,0.3-0.2,0.6c0.5,0.3,0.7,0.8,0.7,1c0.1-0.4,0.2-0.7,0.3-1
	C73.5,48.6,73.4,48.3,72.9,48 M67.4,48c-0.5,0.3-0.7,0.6-0.8,0.9c0.1,0.3,0.2,0.7,0.3,1c0-0.2,0.2-0.7,0.7-1
	c-0.1-0.3-0.1-0.4-0.2-0.6V48z M67,50c0.1,0.4,0.2,0.8,0.3,1.3c0.3,0,0.8,0.4,0.8,0.4c0-0.9,0.1-1.4-0.2-2.3
	C67.2,49.5,67,49.7,67,50 M70,55.9c-2.1,0-4.6,0.5-4.8,0.7c-0.1,0.1-0.1,0.3,0,0.5c0.1,0.1,0.2,0.1,0.4,0.1c0.2-0.1,2.4-0.6,4.4-0.6
	l0,0c2.1,0,4.2,0.5,4.4,0.6h0.1c0.1,0,0.2,0,0.2-0.1c0.1-0.1,0.1-0.3,0-0.5S72.1,55.9,70,55.9L70,55.9z M70,53
	c-0.2,0-0.3-0.1-0.3-0.3s0.1-0.3,0.3-0.3c0.2,0,0.3,0.1,0.3,0.3C70.4,52.9,70.2,53,70,53 M75.5,54h0.1l0.3-0.7l-1.1-0.5
	c0,0,0.4,0.3,0.2,0.9c-0.4-0.1-0.6-0.5-0.6-0.5l-0.2,0.6L74,54.4c0,0,0.3-0.2,0.8-0.1l0,0c-0.2,0.4-0.7,0.7-1.1,0.6
	c-0.4-0.1-0.6-0.3-0.7-0.7c0.1,0,0.2-0.1,0.2-0.2c0-0.1,0-0.2-0.2-0.3l0,0c0-0.2,0.2-0.3,0.4-0.2c0.2,0,0.3,0.2,0.2,0.4
	c0,0.1,0,0.1-0.1,0.2c0.2-0.1,0.3-0.2,0.4-0.4c0.1-0.3-0.1-0.6-0.4-0.7c-0.1,0-0.2,0-0.4,0c0,0,0-0.1,0-0.2c0.1-0.6-0.1-1.1-0.1-1.1
	s-0.5,0.3-0.6,0.9c0,0.1,0,0.1,0,0.2c-0.1-0.1-0.2-0.2-0.3-0.2c-0.3-0.1-0.6,0.1-0.6,0.4c-0.1,0.2,0,0.4,0.2,0.6c0-0.1,0-0.1,0-0.2
	c0-0.2,0.2-0.3,0.4-0.3c0.2,0,0.3,0.2,0.2,0.4h-0.1c-0.1,0-0.2,0.1-0.3,0.2c0,0.1,0,0.2,0.1,0.3c-0.2,0.2-0.6,0.3-0.9,0.3
	c-0.5-0.1-0.9-0.5-0.9-1.2c0.8,0,0.9,0.4,0.9,0.4v-1.6c0,0-0.1,0.4-0.9,0.4c0-0.8,0.4-1,0.4-1h-1.5c0,0,0.4,0.2,0.4,1
	c-0.8,0-0.9-0.4-0.9-0.4v1.6c0,0,0.1-0.4,0.9-0.4c0,0.8-0.4,1.1-0.9,1.2c-0.3,0.1-0.7,0-0.9-0.3c0.1,0,0.1-0.1,0.1-0.3
	c0-0.1-0.1-0.2-0.3-0.2h-0.1c0-0.2,0.1-0.3,0.2-0.4c0.2,0,0.3,0.1,0.4,0.3c0,0.1,0,0.1,0,0.2c0.1-0.1,0.2-0.3,0.2-0.6
	c-0.1-0.3-0.4-0.5-0.6-0.4c-0.1,0-0.2,0.1-0.3,0.2c0-0.1,0-0.1,0-0.2c-0.1-0.6-0.6-0.9-0.6-0.9s-0.3,0.5-0.1,1.1c0,0.1,0,0.1,0,0.2
	c-0.1-0.1-0.2-0.1-0.4,0c-0.3,0.1-0.5,0.4-0.4,0.7c0,0.2,0.2,0.4,0.4,0.4c0,0-0.1-0.1-0.1-0.2c0-0.2,0.1-0.4,0.2-0.4
	c0.2,0,0.3,0.1,0.4,0.2l0,0c-0.1,0-0.2,0.1-0.2,0.3c0,0.1,0.1,0.2,0.2,0.2c-0.1,0.4-0.3,0.6-0.7,0.7c-0.5,0.1-0.9-0.2-1.1-0.6l0,0
	c0.4-0.2,0.8,0.1,0.8,0.1l-0.2-0.6l-0.2-0.6c0,0-0.1,0.4-0.6,0.5c-0.1-0.6,0.2-0.9,0.2-0.9l-1.1,0.5l0.3,0.7h0.1
	c0.2,0,0.3,0.2,0.3,0.4c0,0.1-0.1,0.2-0.2,0.3l0.6,1.3c0,0,2.4-0.6,4.7-0.6c2.3,0,4.7,0.6,4.7,0.6l0.6-1.3c-0.1-0.1-0.2-0.2-0.2-0.3
	C75.1,54.2,75.4,54,75.5,54 M69.4,47.2c0,0,0-0.1-0.1-0.1V47v-0.2c0,0,0-0.1-0.1-0.1c-0.1-0.1-0.2-0.1-0.3-0.2l-0.2-0.1
	c0.1,0.3,0.1,0.7,0.2,1.2c0.5,0.3,0.8,0.7,0.9,1c0-0.6-0.1-1,0-1C69.5,47.6,69.5,47.4,69.4,47.2 M69.1,50.8h0.7v-0.7
	c-0.2-0.4-0.5-0.6-0.8-0.6C69.1,50,69.1,51,69.1,50.8 M68.9,48c0,0.1,0,0.2,0.1,0.3c0,0.2,0.1,0.4,0.1,0.6c0.5,0.3,0.7,0.7,0.8,1
	c0-0.4,0-0.8,0-1.1C69.6,48.5,69.1,48.1,68.9,48 M64.9,49.8c0.5,0.5,0.9,1.2,1.2,2.4c0-0.4,0.4-0.9,0.4-0.9
	c-0.3-1.3-0.7-2.2-0.9-2.7C65.5,49.2,65.2,49.6,64.9,49.8 M71.4,47.6c0.1-0.5,0.2-0.9,0.2-1.2l-0.2,0.1c-0.1,0.1-0.2,0.1-0.3,0.2
	c-0.1,0-0.1,0.1-0.1,0.1V47v0.1c0,0.1,0,0.1-0.1,0.1c-0.1,0.2-0.3,0.3-0.4,0.4c0,0,0,0.4,0,1C70.5,48.3,70.8,47.8,71.4,47.6
	 M59.2,46.7c0.2-0.6,0.6-0.6,0.6-0.6c0.1,0,0.3-0.1,0.3-0.3c0-0.1,0-0.1-0.1-0.2c0-0.1-0.1-0.1-0.2-0.1c0,0-0.3,0-0.6,0.2
	c0-0.1,0.1-0.3,0.2-0.4c0.2-0.3,0.4-0.4,0.7-0.4c0.1,0,0.1,0,0.2,0s0.3,0,0.4,0.1c0,0.1,0,0.2,0,0.3c0,0.2,0,0.4,0,0.6
	c0,0.4,0.1,0.9,0.3,1.3c0.1,0.3,0.2,0.5,0.3,0.7c0.1,0.1,0.1,0.2,0.2,0.4c0.2,0.4,0.3,0.7,0.2,1c0,0.1,0,0.1,0.1,0.2
	c0,0,0.1,0,0.1-0.1c0.1-0.2,0.1-0.4,0.1-0.7c0-0.2-0.1-0.4-0.1-0.6c0-0.1-0.1-0.3-0.1-0.4c-0.1-0.2-0.1-0.5-0.2-0.7
	c-0.1-0.3-0.1-0.7-0.1-1.1c0-0.2,0.1-0.3,0.1-0.5c0-0.1,0.1-0.2,0.1-0.2c0-0.1,0.1-0.2,0.1-0.3c0.2-0.3,0.6-0.6,1.2-0.7
	c0.1,0,0.3,0,0.4,0c0.6,0,0.8,0.4,0.8,0.4v0.1h0.1c0,0,0.5,0.1,0.7,0.6c0.1,0.2,0.1,0.5,0.1,0.9h-0.1v-0.1c-0.5-0.7-1.4-0.9-1.5-0.9
	s-0.2,0.1-0.3,0.2c0,0.1,0.1,0.3,0.2,0.3s0.8,0.2,1.1,0.7c0.2,0.3,0.3,0.7,0.2,1.2c-0.1,0.7-0.3,1.1-0.7,1.4L64,48.9v-0.1
	c0-0.1,0-0.2,0-0.3s0-0.2,0-0.2c0-0.1,0-0.2-0.1-0.3c0-0.1,0-0.1-0.1-0.2v-0.1c-0.1-0.2-0.2-0.4-0.3-0.5c0,0-0.1-0.1-0.2-0.1
	s-0.1,0-0.2,0.1s-0.1,0.3,0,0.4c0,0,0.6,0.6,0.2,1.5c-0.1,0.2-0.2,0.4-0.4,0.6c-0.5,0.5-1.3,0.9-1.9,0.9v-0.1l0,0
	c0.1-0.3,0-0.7-0.2-0.9c-0.1-0.1-0.1-0.1-0.2-0.2c-0.4-0.3-0.7-0.6-0.5-1.1c0.1-0.2,0.2-0.4,0.3-0.6c0.1-0.1,0.1-0.3,0-0.4
	c-0.1,0-0.1-0.1-0.2-0.1s-0.1,0-0.2,0.1c-0.2,0.2-0.3,0.4-0.4,0.6c-0.2-0.2-0.4-0.3-0.5-0.6C59,47.3,59,47,59.2,46.7 M58.5,47.9
	c0.2,0.4,0.5,0.7,0.9,1c0.1,0.6,0.5,1,0.8,1.3c0.1,0.1,0.1,0.1,0.2,0.1c0,0,0.1,0.1,0,0.2l-0.1,0.1l0,0l-0.2,0.1L60,50.8v0.1V51v0.1
	l0.1,0.1c0,0,0,0.1,0.1,0.1c0,0,0.1,0.1,0.2,0.1c0.2,0.1,0.4,0.1,0.6,0.1c1,0,2.3-0.7,2.9-1.6c0.5-0.1,1.4-0.6,1.7-2.2
	c0-0.2,0-0.3,0-0.5c0.4-0.9,0.4-1.7,0.1-2.3c-0.3-0.5-0.7-0.8-0.9-0.9c-0.2-0.2-0.6-0.7-1.4-0.7c-0.2,0-0.3,0-0.5,0
	c-0.8,0.2-1.3,0.6-1.6,0.9c-0.3-0.1-0.6-0.2-0.9-0.2c-0.1,0-0.2,0-0.3,0c-0.6,0.1-1,0.3-1.3,0.8s-0.3,1.1-0.3,1.5
	C58.4,46.9,58.4,47.4,58.5,47.9 M67.6,69.4c-0.5,0-0.8,0.4-0.8,0.9s0.4,0.9,0.9,0.8c0.5,0,0.8-0.4,0.8-0.9
	C68.5,69.8,68.1,69.4,67.6,69.4 M69.9,76.2c-0.5,0-0.9,0.4-0.9,0.9s0.4,0.9,0.9,0.9s0.9-0.4,0.9-0.9C70.8,76.5,70.4,76.2,69.9,76.2
	 M71,70.7c-0.5,0-0.8,0.4-0.8,0.9s0.4,0.9,0.9,0.8c0.5,0,0.8-0.4,0.8-0.9C71.8,71,71.4,70.6,71,70.7 M76.8,66.7
	c-0.5,0-0.9,0.4-0.9,0.9s0.4,0.9,0.9,0.9s0.9-0.4,0.9-0.9C77.6,67.1,77.2,66.7,76.8,66.7 M82.4,67.7h-0.1c-1.8,0.7-3.7,1.1-5.6,1.2
	c-1.1,0-2.2-0.1-3.2-0.3c0.1-1,0.2-2,0.6-3c6.3-1.8,11-7.6,11-14.5c0-8.3-6.7-15-15-15s-15,6.7-15,15c0,5.1,2.6,9.6,6.5,12.3
	c-0.5,0.2-1,0.6-1.4,1l-0.9-0.7c-0.5-0.4-1.3-0.3-1.7,0.2c-0.2,0.3-0.3,0.6-0.2,0.9c0,0.3,0.2,0.6,0.5,0.8l1.1,0.8
	c-0.2,0.5-0.3,1.1-0.3,1.6c-5.4-3.7-9-9.9-9-17c0-11.3,9.2-20.6,20.6-20.6c11.3,0,20.6,9.2,20.6,20.6C90.6,58,87.4,63.9,82.4,67.7
	 M79.2,71.6c-0.2,0.1-0.4,0.2-0.6,0.3c-0.4,0.2-0.9,0.6-1.3,1c-0.8,0.8-1.6,1.6-2.9,1.6l0,0c-0.1,0-0.3,0-0.5,0
	c-0.3,0-0.7-0.1-1.1-0.1c-1.3-0.2-3.2-0.7-5.5-1.5c-0.3-0.1-0.5-0.2-0.8-0.3c-0.7-0.3-1.5-0.7-2.3-1.1c0.7-0.4,1.3-1.1,1.8-1.9
	c0.5-0.8,0.7-1.7,0.7-2.6c2.2,1.3,5.8,2.9,10,2.8c1.8,0,3.5-0.4,5.2-1C81.5,70.7,80.2,71.2,79.2,71.6 M75,78.7c-0.1,1-0.9,1.7-2,1.7
	c-0.3,0-0.5,0-0.8-0.1c-0.1,0-0.1,0-0.2,0s-0.3,0.1-0.4,0.2c-0.1,0.2-0.1,0.4,0,0.5c0.2,0.3,0.3,0.7,0.3,1c0,0.5-0.2,0.9-0.5,1.3
	c-0.4,0.4-0.9,0.6-1.4,0.6l0,0c-1.1,0-2-0.8-2-1.9c0-0.4,0.1-0.7,0.3-1c0.1-0.2,0.1-0.4,0-0.5s-0.2-0.2-0.4-0.2c-0.1,0-0.1,0-0.2,0
	c-0.2,0.1-0.5,0.2-0.8,0.2c-1,0-1.9-0.7-2-1.7c1.1-1,1.8-2.4,2.2-4.2c0.1-0.3,0.1-0.6,0.2-0.8c2.3,0.9,4.3,1.3,5.6,1.5
	c0.1,0.3,0.1,0.6,0.2,0.8C73.5,77.1,74.1,78,75,78.7 M70,63.9c-0.2,0-0.4,0-0.7-0.1c-0.3,0-0.6-0.1-0.9-0.1c-0.4,0-1.5-0.1-2.1,0.8
	c0,0.1-0.1,0.1-0.1,0.2c-0.3-0.5-0.7-0.9-1.2-1.2c-0.7-0.4-1.5-0.5-2.3-0.4c-4-2.5-6.7-6.9-6.7-12C55.9,43.3,62.2,37,70,37
	c7.8,0,14.1,6.3,14.1,14.1c0,5.4-3,10-7.4,12.4c-0.5-0.3-1.4-0.5-2.4-0.3C72.6,63.7,70.6,63.9,70,63.9 M73,65.9
	c-0.2,0.8-0.3,1.7-0.4,2.5c-2.4-0.6-4.3-1.5-5.7-2.3c0-0.4,0.1-0.7,0.2-0.9c0.2-0.3,0.5-0.4,1.1-0.4c0.3,0,0.7,0,1,0.1
	c0.3,0,0.5,0.1,0.8,0.1s0.5,0,0.8,0c0.8,0,1.6-0.1,2.7-0.4c-0.1,0.2-0.2,0.3-0.2,0.5c0,0.1-0.1,0.2-0.1,0.2c0,0.1-0.1,0.2-0.1,0.2
	C73,65.6,73,65.8,73,65.9L73,65.9 M58.1,65.2c-0.1-0.1-0.2-0.2-0.2-0.3s0-0.3,0.1-0.4c0.1-0.1,0.2-0.2,0.4-0.2c0.1,0,0.2,0,0.3,0.1
	l3.3,2.5c0.1,0.1,0.2,0.2,0.2,0.3s0,0.3-0.1,0.4c-0.2,0.2-0.5,0.3-0.7,0.1L58.1,65.2z M61.9,70.9c-0.4,0-0.7-0.1-1-0.3
	c-1-0.6-1.3-1.9-1-3.2l1.2,0.9c0.2,0.2,0.5,0.2,0.7,0.2c0.4,0,0.7-0.2,1-0.5c0.2-0.3,0.3-0.6,0.2-0.9c0-0.3-0.2-0.6-0.5-0.8l-1.3-1
	c0.6-0.6,1.4-0.9,2.1-0.9c0.4,0,0.7,0.1,1,0.3c0.6,0.3,0.9,0.9,1.1,1.7c0.1,0.8,0,1.8-0.5,2.6C64.1,70.1,63,70.9,61.9,70.9 M70,29.8
	c-11.8,0-21.4,9.6-21.4,21.4c0,7.6,4,14.3,9.9,18.1c0.2,1,0.8,1.9,1.7,2.5c0.9,0.5,2,0.6,3,0.2c1.1,0.6,2.1,1,3.1,1.4
	c0,0.4-0.1,0.7-0.2,1c-0.3,1.6-0.9,2.8-1.9,3.7l-0.4,0.3v0.5c0.1,1.5,1.4,2.6,3,2.7l0,0c0,0.2,0,0.3,0,0.5c0,1.6,1.3,2.8,2.9,2.9
	h0.1c0.8,0,1.6-0.3,2.1-0.9c0.6-0.6,0.9-1.3,0.9-2.1c0-0.2,0-0.3,0-0.5l0,0c1.6,0,2.9-1.2,3-2.7v-0.5L75.5,78
	c-0.7-0.6-1.2-1.3-1.5-2.2c0-0.1-0.1-0.3-0.1-0.4c0.1,0,0.3,0,0.4,0l0,0c1.6,0,2.7-1,3.5-1.9c0.4-0.4,0.7-0.7,1.1-0.9
	c0.2-0.1,0.4-0.1,0.6-0.2c1.2-0.4,2.9-1.1,3.3-4c5.3-3.9,8.7-10.2,8.7-17.2C91.5,39.4,82,29.8,70,29.8 M60.8,56L60.8,56
	c0.1,0,0.2-0.1,0.3-0.1h0.1H61c-0.1,0-0.2-0.1-0.3-0.3c0-0.1,0-0.3,0.1-0.4c0.1-0.1,0.2-0.2,0.4-0.3c0.1,0,0.2,0,0.3,0l0,0l0,0h0.1
	h0.1l0,0c0,0,0.1,0,0.1,0.1c0,0,0,0,0.1,0l0.1,0.1l0,0l0,0c0.1,0.1,0,0.2,0,0.3v0.1h0.1c0.1,0,0.2,0,0.3-0.1l0,0l0,0
	c0-0.1,0-0.2,0-0.4c0-0.1-0.1-0.2-0.2-0.2l0,0l0,0c-0.1,0-0.1-0.1-0.2-0.1l0,0l0,0c-0.3-0.1-0.5-0.1-0.7,0s-0.4,0.2-0.5,0.4
	s-0.2,0.4-0.1,0.6C60.5,55.8,60.6,55.9,60.8,56L60.8,56z M80.1,65c-0.5,0-0.9,0.4-0.9,0.9s0.4,0.9,0.9,0.9s0.9-0.4,0.9-0.9
	S80.6,65,80.1,65 M74.5,71.4c-0.5,0-0.8,0.4-0.8,0.9s0.4,0.8,0.9,0.8s0.9-0.4,0.8-0.9C75.4,71.8,75,71.4,74.5,71.4 M74.5,59.3
	l-0.1-0.2h0.1c0.1,0,0.2,0.1,0.4,0.1c0.3,0,0.6-0.1,0.9-0.2c0.9-0.4,1.2-1.5,1.5-2.7c0.2-0.6,0.3-1.3,0.6-1.8
	c0.6-1.2,1.4-1.3,1.6-1.3s0.8,0.2,1.5,0.4c-0.2,0.2-0.4,0.5-0.5,0.8c-0.1,0.2-0.1,0.3-0.2,0.5c-0.6,1.6-1.6,4.7-3.8,5.1
	c-0.2,0-0.3,0-0.5,0C75.2,60,74.8,59.8,74.5,59.3 M76.5,60.5c1.5-0.2,2.7-1.5,3.7-3.9c0.1,0.1,0.3,0.2,0.6,0.4
	c0.2,0.1,0.4,0.1,0.6,0.1s0.3,0,0.4-0.1s0.2-0.2,0.1-0.3c0-0.1-0.1-0.2-0.2-0.2h-0.2c-0.1,0-0.1,0-0.2,0s-0.1-0.1-0.2-0.2
	c0-0.3,0.2-0.4,0.5-0.7c0.1-0.1,0.2-0.1,0.2-0.2c0.2-0.1,0.3-0.3,0.4-0.4c0.2-0.2,0.3-0.5,0.3-0.7c0.1-0.7-0.3-1.1-0.7-1.2
	c-0.1,0-0.1,0-0.2,0c-0.8-0.1-2.3-0.5-2.4-0.5c-0.2,0-1.3,0.1-2.1,1.5c-0.3,0.6-0.5,1.3-0.7,2c-0.3,1-0.5,2-1.2,2.4
	c-0.3,0.1-0.5,0.2-0.7,0.2c-0.8,0-0.6-0.9-0.5-1.1l0,0c-0.1,0-0.3-0.1-0.5-0.1c-0.2,0.6-0.1,1.4,0.3,2.1c0.2,0.3,0.8,0.9,1.9,0.9
	C76,60.5,76.2,60.5,76.5,60.5 M67.6,61c0,0.1-0.1,0.1-0.1,0.1l0,0c-0.1,0-0.1-0.1-0.1-0.1c0.1-0.9,0.2-2.8,0.2-3.7
	c-0.4,0.1-0.6,0.1-0.6,0.1c-0.1,1.5,0.3,1.8,0.3,1.8s-0.1,1.4-0.1,1.7s0,0.6,0.4,0.6s0.4-0.4,0.5-0.6c0-0.2,0.1-1.2,0.1-1.6
	c0.2-0.1,0.3-0.4,0.3-0.7c-0.1,0.1-0.2,0.2-0.3,0.3c0,0,0.2-0.3,0.4-0.6c0-0.2,0-0.3,0-0.5c-0.1,0.1-0.3,0.2-0.4,0.3
	c0,0,0.2-0.4,0.5-0.7c0-0.1,0-0.2,0-0.3c-0.2,0-0.5,0.1-0.7,0.1C67.8,58.1,67.8,60,67.6,61 M62.6,56.4L62.6,56.4L62.6,56.4
	L62.6,56.4c-0.2,0-0.4,0.1-0.6,0.1l0,0c-0.1-0.2-0.1-0.3-0.2-0.5c0.2-0.1,0.4-0.1,0.7-0.2l0,0l0,0c0-0.1,0-0.1,0-0.2l0,0l0,0l0,0
	c-0.6,0.1-1.1,0.3-1.7,0.5l0,0l0,0c0,0,0,0.1,0.1,0.1l0,0l0,0c0.3-0.1,0.5-0.2,0.8-0.3c0.1,0.2,0.1,0.3,0.2,0.5v0.1
	c-0.2,0.1-0.4,0.1-0.7,0.2l0,0l0,0c0,0,0,0.1,0.1,0.1l0,0l0,0l0,0c0.6-0.2,1-0.3,1.5-0.4l0,0v-0.1C62.6,56.5,62.6,56.5,62.6,56.4
	 M70.5,58.7c0,0,0.3-0.5,0.6-0.8c0-0.1,0-0.1,0-0.2c-0.2,0.1-0.4,0.2-0.6,0.4c0,0,0.2-0.4,0.5-0.7c0-0.1,0-0.3,0-0.3s-0.3,0-0.6,0
	v4.2c0,0.1-0.1,0.2-0.2,0.2s-0.2-0.1-0.2-0.2v-4.2c-0.2,0-0.5,0-0.6,0c0,0,0,0.1,0,0.3c0.3,0.3,0.5,0.7,0.5,0.7
	c-0.2-0.2-0.4-0.3-0.6-0.4c0,0.1,0,0.1,0,0.2c0.3,0.3,0.6,0.8,0.6,0.8c-0.2-0.2-0.5-0.3-0.6-0.4c0,0.1,0,0.2,0,0.4
	c-0.1,0.6,0.6,1,0.6,1s0,1.3,0,1.7c0,0.5,0.5,0.5,0.5,0.5s0.5-0.1,0.5-0.5c0-0.5,0-1.7,0-1.7s0.7-0.4,0.6-1c0-0.1,0-0.2,0-0.4
	C70.9,58.3,70.6,58.5,70.5,58.7 M65.8,59.3C65.5,59.8,65,60,64.2,60c-0.2,0-0.3,0-0.5,0c-2.2-0.4-3.3-3.4-3.8-5.1
	c-0.1-0.2-0.1-0.4-0.2-0.5c-0.1-0.3-0.3-0.6-0.5-0.8c0.7-0.2,1.4-0.4,1.5-0.4c0.2,0,1,0.1,1.6,1.3c0.3,0.5,0.5,1.2,0.6,1.8
	c0.3,1.2,0.6,2.3,1.5,2.7c0.3,0.2,0.6,0.2,0.9,0.2c0.1,0,0.2,0,0.4-0.1h0.1C65.9,59.1,65.8,59.3,65.8,59.3 M66,57.6L66,57.6
	c0.1,0.2,0.3,1.1-0.6,1.1c-0.2,0-0.5-0.1-0.7-0.2c-0.7-0.3-0.9-1.3-1.2-2.4c-0.2-0.7-0.4-1.4-0.7-2c-0.8-1.5-1.9-1.5-2.1-1.5
	c-0.1,0-1.5,0.4-2.4,0.5c-0.1,0-0.2,0-0.2,0c-0.4,0.1-0.7,0.5-0.7,1.2c0,0.3,0.1,0.5,0.3,0.7c0.1,0.1,0.2,0.3,0.4,0.4
	c0.1,0.1,0.2,0.1,0.2,0.2c0.3,0.2,0.5,0.4,0.5,0.7c0,0.1-0.1,0.2-0.2,0.2c0,0-0.1,0-0.2,0h-0.2c-0.1,0-0.2,0.1-0.2,0.2
	c0,0.1,0,0.2,0.1,0.3c0.1,0,0.2,0.1,0.4,0.1c0.2,0,0.4,0,0.6-0.1c0.4-0.2,0.5-0.3,0.6-0.4c1,2.4,2.2,3.7,3.7,3.9c0.2,0,0.4,0,0.6,0
	c1.1,0,1.7-0.6,1.9-0.9c0.5-0.7,0.5-1.5,0.3-2.1C66.2,57.5,66,57.6,66,57.6 M79.9,55c-0.3-0.2-0.6-0.3-1-0.4
	c0.6-0.2,1.5-0.6,1.5-0.6l-1.5-0.4l-0.2,0.2c0,0,0.9,0.2,1.1,0.3c-0.2,0.1-1.5,0.5-1.5,0.5s1.1,0.4,1.6,0.6V55z M79.1,56.7
	L79.1,56.7L79.1,56.7C79.2,56.6,79.2,56.6,79.1,56.7c0.1-0.1,0.1-0.1,0.1-0.1l0,0l0,0c-0.5-0.2-0.9-0.4-1.6-0.7l0,0V56v0.1l0,0l0,0
	C78.2,56.3,78.6,56.4,79.1,56.7 M77.4,57.2c0.1-0.2,0.2-0.6,0.6-0.6c0.1,0,0.2,0,0.3,0.1c0.2,0.1,0.4,0.2,0.4,0.4
	c0.1,0.2-0.1,0.4-0.1,0.6L77.4,57.2z M78.5,57.9L78.5,57.9c0,0,0.4-0.5,0.3-0.9c-0.1-0.2-0.2-0.4-0.6-0.5c-0.1-0.1-0.3-0.1-0.4-0.1
	c-0.7,0-0.8,0.9-0.8,0.9l0,0L78.5,57.9L78.5,57.9z M73.2,57.4c0,0-0.3-0.1-0.6-0.1c0,0.9,0.1,2.8,0.2,3.7c0,0.1,0,0.1-0.1,0.1l0,0
	c-0.1,0-0.1,0-0.1-0.1c-0.1-1-0.2-2.9-0.2-3.8c-0.2,0-0.4-0.1-0.7-0.1c0,0,0,0.1,0,0.3c0.3,0.3,0.5,0.7,0.5,0.7
	c-0.1-0.1-0.3-0.2-0.4-0.3c0,0.2,0,0.3,0,0.5c0.2,0.3,0.4,0.6,0.4,0.6c-0.1-0.1-0.2-0.2-0.3-0.3c0.1,0.3,0.2,0.6,0.3,0.7
	c0,0.3,0.1,1.4,0.1,1.6c0,0.2,0.1,0.6,0.5,0.6s0.4-0.3,0.4-0.6s-0.1-1.7-0.1-1.7S73.4,58.9,73.2,57.4 M79.4,56.2L79.4,56.2
	L79.4,56.2c0.1-0.2,0.2-0.4,0.3-0.6l0,0l0,0c-0.1,0-0.1,0-0.2-0.1l0,0l0,0c-0.1,0.1-0.1,0.3-0.2,0.5c-0.2-0.1-0.3-0.2-0.5-0.2
	c0-0.1,0-0.1,0.1-0.2c0-0.1,0.1-0.2,0.1-0.3l0,0h-0.1h-0.1l0,0l0,0c0,0.1-0.1,0.2-0.1,0.3s0,0.1-0.1,0.2c-0.1-0.1-0.3-0.1-0.4-0.2
	c0-0.1,0-0.1,0.1-0.2c0-0.1,0.1-0.2,0.1-0.3l0,0h-0.1c-0.1,0-0.1,0-0.2-0.1l0,0l-0.3,0.5l0,0l0,0C78.4,55.8,79.4,56.2,79.4,56.2
	 M70.4,50c0.1-0.3,0.3-0.7,0.8-1c0-0.2,0.1-0.4,0.1-0.6c0-0.1,0-0.2,0.1-0.3c-0.3,0-0.8,0.5-0.9,0.8S70.4,49.6,70.4,50 M81.5,8.7
	c0.4,0,0.8-0.3,0.8-0.8c0-0.4-0.3-0.8-0.8-0.8c-0.4,0-0.8,0.3-0.8,0.8C80.6,8.3,81,8.7,81.5,8.7 M83.6,9.8c0.4,0,0.8-0.4,0.8-0.8
	c0-0.4-0.3-0.8-0.8-0.8c-0.4,0-0.8,0.4-0.8,0.8C82.9,9.4,83.2,9.8,83.6,9.8 M70.1,19.8c-0.5,0-0.9-0.4-0.9-0.9s0.4-0.9,0.9-0.9
	s0.9,0.4,0.9,0.9C71,19.4,70.6,19.8,70.1,19.8 M83.9,20.6c0.2,0,0.4,0.1,0.5,0.2l0.9-1.8l-2.8-1.2c0,0,0.9,0.7,0.6,2.2
	c-1.1-0.3-1.4-1.3-1.4-1.3l-0.5,1.6l-0.5,1.5c0,0,0.9-0.6,1.9-0.2l0,0c-0.6,1-1.7,1.7-2.9,1.4c-1-0.2-1.7-0.9-2-1.8
	c0.3,0,0.5-0.2,0.6-0.4c0.1-0.3-0.1-0.6-0.4-0.7h-0.1c0.1-0.4,0.5-0.7,1-0.6c0.4,0.1,0.7,0.6,0.6,1c0,0.2-0.1,0.3-0.2,0.4
	c0.5-0.1,0.9-0.5,1-1.1c0.2-0.8-0.3-1.5-1-1.7c-0.3-0.1-0.6,0-0.9,0.1c0-0.1,0.1-0.3,0.1-0.4c0.4-1.6-0.4-2.7-0.4-2.7
	s-1.2,0.7-1.5,2.3c0,0.1-0.1,0.3-0.1,0.4c-0.2-0.2-0.4-0.4-0.8-0.5c-0.7-0.2-1.5,0.3-1.6,1.1c-0.1,0.5,0.1,1.1,0.4,1.4
	c0-0.1,0-0.3,0-0.4c0.1-0.5,0.5-0.7,1-0.6c0.4,0.1,0.7,0.5,0.6,1h-0.1c-0.3-0.1-0.6,0.1-0.7,0.4c-0.1,0.3,0.1,0.5,0.3,0.6
	c-0.6,0.6-1.4,0.9-2.2,0.8c-0.9-0.2-1.5-0.9-1.8-1.7l0,0c1.2,0,1.8,0.8,1.8,0.8v-3.3c0,0-0.6,0.8-1.8,0.8c0.2-1.6,1.3-1.9,1.3-1.9
	h-5.1c0,0,1.1,0.3,1.3,1.9c-1.2,0-1.8-0.8-1.8-0.8v3.3c0,0,0.6-0.8,1.8-0.8l0,0c-0.3,0.9-0.9,1.6-1.8,1.7c-0.8,0.2-1.6-0.2-2.2-0.8
	c0.2-0.1,0.4-0.4,0.3-0.6c-0.1-0.3-0.4-0.5-0.7-0.4h-0.1c-0.1-0.4,0.2-0.9,0.6-1s0.9,0.2,1,0.6c0,0.2,0,0.3,0,0.4
	c0.4-0.3,0.6-0.9,0.4-1.4c-0.2-0.8-0.9-1.2-1.6-1.1c-0.3,0.1-0.6,0.3-0.8,0.5c0-0.1,0-0.3-0.1-0.4c-0.4-1.6-1.5-2.3-1.5-2.3
	s-0.7,1.2-0.4,2.7c0,0.1,0.1,0.3,0.1,0.4c-0.3-0.1-0.6-0.2-0.9-0.1c-0.7,0.2-1.2,0.9-1,1.7c0.1,0.5,0.5,0.9,1,1.1
	c-0.1-0.1-0.2-0.2-0.2-0.4c-0.1-0.5,0.2-0.9,0.6-1s0.9,0.2,1,0.6h-0.1c-0.3,0.1-0.5,0.4-0.4,0.7s0.3,0.4,0.6,0.4
	c-0.3,0.9-1,1.6-2,1.8c-1.2,0.2-2.3-0.4-2.9-1.4l0,0c1.1-0.4,1.9,0.2,1.9,0.2l-0.5-1.5l-0.5-1.6c0,0-0.3,1-1.4,1.3
	c-0.3-1.5,0.6-2.2,0.6-2.2L55.1,19l0.9,1.7c0.1,0,0.2-0.1,0.3-0.1c0.5,0,0.9,0.4,0.9,0.9c0,0.3-0.2,0.6-0.4,0.8l1.4,2.8
	c0.1-0.1,0.3-0.2,0.4-0.3c0.2-0.1,4.3-2.5,11.6-2.5l0,0c7.2,0,11.4,2.4,11.6,2.5s0.3,0.2,0.4,0.3l1.4-2.8c-0.4-0.1-0.6-0.4-0.6-0.8
	C83,21,83.4,20.6,83.9,20.6 M79.1,8.5c0.4,0,0.8-0.4,0.8-0.8c0-0.4-0.3-0.8-0.8-0.8c-0.4,0-0.8,0.3-0.8,0.8S78.6,8.5,79.1,8.5
	 M87,15.1c0-0.4-0.3-0.8-0.8-0.8c-0.4,0-0.8,0.3-0.8,0.8c0,0.4,0.3,0.8,0.8,0.8C86.6,15.9,87,15.5,87,15.1 M74.6,9.6
	c0.4,0,0.8-0.3,0.8-0.8S75,8,74.6,8s-0.8,0.3-0.8,0.8S74.1,9.6,74.6,9.6 M76.9,9.1c0.4,0,0.8-0.3,0.8-0.8c0-0.4-0.4-0.8-0.8-0.8
	s-0.8,0.4-0.8,0.8C76,8.7,76.4,9.1,76.9,9.1 M85.2,11.6c0.4,0,0.8-0.3,0.8-0.8S85.6,10,85.2,10s-0.8,0.3-0.8,0.8
	S84.9,11.6,85.2,11.6 M70,26.8c0.7,0,1.3-0.5,1.3-1.1s-0.6-1.1-1.3-1.1c-0.7,0-1.3,0.5-1.3,1.1S69.4,26.8,70,26.8 M65,27.2
	c0.7,0,1.3-0.5,1.3-1.1S65.6,25,65,25c-0.7,0-1.3,0.5-1.3,1.1C63.6,26.7,64.2,27.2,65,27.2 M86.5,17.4c0-0.4-0.3-0.8-0.8-0.8
	c-0.4,0-0.8,0.4-0.8,0.8s0.3,0.8,0.8,0.8C86.1,18.2,86.5,17.8,86.5,17.4 M75.2,27.2c0.7,0,1.3-0.5,1.3-1.1S75.9,25,75.2,25
	c-0.7,0-1.3,0.5-1.3,1.1C73.9,26.7,74.5,27.2,75.2,27.2 M59.2,27.7c-0.1-0.1-0.2-0.3-0.3-0.5c-0.1-0.4,0.1-0.8,0.4-1
	c3.9-1.8,8-2.2,10.7-2.2s6.8,0.4,10.7,2.2c0.4,0.2,0.5,0.6,0.5,1c0,0.2-0.1,0.4-0.3,0.5l-0.8,0.7l0.8,0.7c0.2,0.2,0.3,0.5,0.3,0.9
	c-0.1,0.4-0.3,0.6-0.6,0.6c-0.1,0-0.2,0-0.4-0.1l-0.2-0.1c-4.2-1.9-7.7-2.3-10-2.3c-2.2,0-5.8,0.4-10,2.3l-0.2,0.1
	c-0.1,0-0.2,0.1-0.3,0.1c-0.3,0-0.6-0.2-0.7-0.6c-0.1-0.4,0-0.7,0.3-0.9l0.8-0.7L59.2,27.7z M58.1,30.1c0.2,1,1.2,1.5,2.1,1.1
	c0.5-0.2,4.6-2.3,9.8-2.3c5.2,0,9.4,2.1,9.8,2.3c0.2,0.1,0.5,0.1,0.7,0.1c0.7,0,1.3-0.5,1.5-1.3c0.2-0.7-0.1-1.4-0.6-1.7
	c0.3-0.2,0.5-0.6,0.6-1c0.2-0.8-0.2-1.6-0.9-2c-4-1.9-8.2-2.3-11-2.3s-7,0.4-11.1,2.3c-0.7,0.3-1.1,1.1-0.9,1.9
	c0.1,0.4,0.3,0.7,0.6,1C58.1,28.7,58,29.4,58.1,30.1 M81,14c-1.2-0.1-1.7,0-2.1-0.4l-0.1-0.1c-0.8-0.7-1.7-1.2-3.3-0.6
	c-0.6,0.2-1.1,0.5-1.4,0.7c-0.5,0.3-1.1,0.6-1.4,0.6v0.9c0.6,0,1.2-0.3,1.8-0.6c0.4-0.2,0.8-0.4,1.4-0.6c1.2-0.4,2.3,0,2.7,0.4
	l0.1,0.1c0.6,0.6,1,0.6,2.6,0.7c1.1,0.1,1.9,2,1.9,2l1.3,0.7v-0.1c1-2.3,0.9-4.5-0.2-6.3c-1.4-2.3-4.5-2.6-6.6-1.9
	c-1.6,0.6-3.3,1-5,1.1V12c1.9-0.1,3.7-0.5,5.5-1.2c1.5-0.6,3.7-0.3,4.6,1.2c0.7,1.1,1,2.4,0.7,3.9C82.9,15,82,14,81,14 M62.4,10.7
	c1.8,0.7,3.7,1.1,5.5,1.2v-1.4c-1.7-0.1-3.3-0.5-5-1.1c-2.1-0.8-5.2-0.4-6.6,1.9c-1.1,1.8-1.2,4-0.2,6.3v0.1l1.3-0.7
	c0,0,0.8-1.9,1.9-2c1.6-0.1,2-0.1,2.6-0.7l0.1-0.1c0.4-0.4,1.5-0.9,2.7-0.4c0.5,0.2,1,0.4,1.4,0.6c0.6,0.3,1.1,0.6,1.8,0.6v-0.9
	c-0.4,0-0.9-0.3-1.4-0.6C66,13.3,65.6,13,65,12.8c-1.6-0.6-2.5-0.1-3.3,0.6l-0.1,0.1c-0.4,0.4-0.9,0.3-2.1,0.4
	c-1.2,0.1-1.9,1-2.4,1.8c-0.3-1.4,0-2.8,0.7-3.9C58.6,10.4,60.8,10.1,62.4,10.7 M54.6,16.6c-0.4,0-0.8,0.4-0.8,0.8s0.3,0.8,0.8,0.8
	s0.8-0.3,0.8-0.8S55,16.6,54.6,16.6 M61.2,8.5c0.4,0,0.8-0.4,0.8-0.8c0-0.4-0.4-0.8-0.8-0.8s-0.8,0.3-0.8,0.8S60.9,8.5,61.2,8.5
	 M55,11.6c0.4,0,0.8-0.3,0.8-0.8S55.5,10,55,10c-0.4,0-0.8,0.3-0.8,0.8S54.6,11.6,55,11.6 M54.1,13.7c0.4,0,0.8-0.3,0.8-0.8
	c0-0.4-0.3-0.8-0.8-0.8c-0.4,0-0.8,0.4-0.8,0.8S53.8,13.7,54.1,13.7 M56.8,9.8c0.4,0,0.8-0.4,0.8-0.8c0-0.4-0.3-0.8-0.8-0.8
	C56.4,8.2,56,8.6,56,9C56,9.4,56.2,9.8,56.8,9.8 M70,65.4c-0.5,0-0.9,0.4-0.9,0.9s0.4,0.9,0.9,0.9s0.9-0.4,0.9-0.9
	C70.9,65.7,70.5,65.4,70,65.4 M85.5,12.9c0,0.4,0.3,0.8,0.8,0.8c0.4,0,0.8-0.3,0.8-0.8c0-0.4-0.3-0.8-0.8-0.8
	C85.8,12.1,85.5,12.5,85.5,12.9 M54.1,15.9c0.4,0,0.8-0.3,0.8-0.8c0-0.4-0.3-0.8-0.8-0.8c-0.4,0-0.8,0.3-0.8,0.8
	C53.4,15.5,53.8,15.9,54.1,15.9 M63.5,9.1c0.4,0,0.8-0.3,0.8-0.8c0-0.4-0.3-0.8-0.8-0.8s-0.8,0.4-0.8,0.8
	C62.8,8.7,63.1,9.1,63.5,9.1 M58.9,8.7c0.4,0,0.8-0.3,0.8-0.8c0-0.4-0.4-0.8-0.8-0.8s-0.8,0.3-0.8,0.8C58.1,8.3,58.5,8.7,58.9,8.7
	 M65.8,9.6c0.4,0,0.8-0.3,0.8-0.8S66.1,8,65.8,8S65,8.3,65,8.8S65.4,9.6,65.8,9.6 M72,7.9c-0.2,0.9-1,1.6-1.9,1.6l0,0
	c-1,0-1.7-0.7-1.9-1.6H72z M69.8,5.6v1.6h-1.5C68.5,6.4,69,5.7,69.8,5.6 M70.1,2.6c0.3,0,0.6,0.3,0.6,0.6s-0.3,0.6-0.6,0.6
	c-0.3,0-0.6-0.3-0.6-0.6C69.5,2.9,69.9,2.6,70.1,2.6 M72,7.1h-1.6V5.5C71.4,5.7,72,6.3,72,7.1 M69.5,10.3c0.2,0.1,0.5,0.1,0.7,0.1
	l0,0c0.2,0,0.5,0,0.7-0.1c0,0.4-0.3,0.7-0.7,0.7S69.5,10.7,69.5,10.3 M70.1,13.3c-0.4,0-0.7-0.3-0.7-0.7s0.3-0.7,0.7-0.7
	c0.4,0,0.7,0.3,0.7,0.7S70.5,13.3,70.1,13.3 M67.2,7.5c0,1.1,0.6,2,1.4,2.5v5h0.8c0-0.4,0.3-0.7,0.7-0.7c0.4,0,0.7,0.3,0.7,0.7h0.8
	v-5C72.5,9.5,73,8.6,73,7.5c0-1.3-0.9-2.4-2.1-2.8c0.1-0.1,0.2-0.2,0.2-0.4S71,3.9,70.9,3.8l0,0c1.1-0.2,1.7,0.6,1.7,0.6V1.8
	c0,0-0.5,0.8-1.7,0.6l0,0c-0.2-1.1,0.6-1.7,0.6-1.7h-2.6c0,0,0.8,0.6,0.6,1.7l0,0c-1.1,0.2-1.7-0.6-1.7-0.6v2.6c0,0,0.5-0.8,1.7-0.6
	l0,0c-0.2,0.1-0.3,0.2-0.3,0.5c0,0.2,0.1,0.3,0.2,0.4C68.1,5.1,67.2,6.2,67.2,7.5 M52.6,59.6l1.2-0.6l0.6,1.1l-1.2,0.6l0.4,0.8
	l3-1.6l-0.4-0.8L55,59.7l-0.6-1.1l1.2-0.6l-0.4-0.8l-3,1.6L52.6,59.6z M87.6,56.4c-0.6-0.2-0.9,0.1-1.2,0.5
	c-0.1,0.2-0.3,0.5-0.6,0.4c-0.2-0.1-0.2-0.3-0.2-0.5c0.1-0.3,0.3-0.5,0.6-0.6l-0.5-0.6c-0.4,0.2-0.6,0.6-0.8,1c-0.1,0.3-0.2,0.7,0,1
	c0.1,0.3,0.4,0.5,0.7,0.6c0.5,0.2,0.9-0.1,1.2-0.5l0.1-0.2c0.1-0.1,0.3-0.3,0.4-0.3c0.2,0.1,0.2,0.3,0.1,0.5s-0.2,0.4-0.4,0.5
	l0.5,0.6c0.3-0.2,0.5-0.6,0.6-0.9C88.5,57.3,88.2,56.7,87.6,56.4 M56.6,41.4c-0.3,0.4-0.9,0.5-1.4,0.2c-0.4-0.3-0.5-0.9-0.2-1.3
	c0.3-0.4,0.9-0.5,1.3-0.3C56.9,40.4,57,41,56.6,41.4 M57,39.3c-0.8-0.6-2-0.3-2.5,0.5c-0.6,0.8-0.5,2,0.3,2.6c0.9,0.7,2,0.5,2.6-0.4
	C58,41,57.8,39.9,57,39.3 M55,43.2c-0.5-0.2-0.9,0-1.2,0.4l-0.2,0.2c-0.1,0.1-0.3,0.3-0.5,0.2s-0.2-0.3-0.1-0.5s0.3-0.4,0.4-0.4
	l-0.5-0.6c-0.3,0.2-0.6,0.6-0.7,0.9c-0.3,0.6-0.1,1.3,0.6,1.5c0.6,0.3,0.9,0,1.3-0.5c0.1-0.2,0.3-0.4,0.6-0.3
	c0.2,0.1,0.2,0.3,0.1,0.5c-0.1,0.3-0.4,0.5-0.6,0.6l0.5,0.6c0.4-0.2,0.7-0.6,0.8-0.9c0.1-0.3,0.2-0.7,0.1-1
	C55.6,43.5,55.4,43.3,55,43.2 M52,55.7c-0.1-0.5,0.2-1,0.6-1.2c0.6-0.1,1.1,0.2,1.2,0.7s-0.2,1-0.8,1.2C52.8,56.5,52.1,56.2,52,55.7
	 M53.4,57.3c1.1-0.3,1.6-1.2,1.4-2.3c-0.3-1.1-1.2-1.7-2.3-1.4c-1,0.2-1.5,1.3-1.3,2.3C51.5,56.8,52.4,57.5,53.4,57.3 M77.1,33.2
	l-1.3,1.5l-0.1-2L75,32.4l-1.7,3l0.8,0.3l0.9-1.8l0,0L75,36l0.3,0.1l1.4-1.6l0,0l-0.4,1.9l0.8,0.3l0.6-3.4L77.1,33.2z M89.4,53.1
	l0.1-0.9l-3.4-0.5L86,52.6l2.1,0.3l0,0l-2.3,1.3l-0.1,0.9l3.4,0.5l0.1-0.9l-2.1-0.3l0,0L89.4,53.1z M70.5,35.3h0.9l0.2-3.4h-0.9
	L70.5,35.3z M80,37.1l-0.6-0.4l0.9-0.7l0,0L80,37.1z M80.5,34.9l-3,2.1l0.8,0.5l0.5-0.4l1,0.7l-0.1,0.6l0.8,0.5l0.8-3.6L80.5,34.9z
	 M83.5,59.9l0.7,0.4l0.5-0.9l0.5,0.3l-0.5,0.9l0.7,0.4l0.5-0.9l0.5,0.3l-0.5,0.9l0.7,0.4l1-1.7l-3-1.7L83.5,59.9z M87.6,42.9
	L87.1,42L86,41.9l0.5-1L86,40l-0.9,2l-1.4,0.8l0.5,0.8l1.4-0.8L87.6,42.9z M69.5,31.8l-0.9,0.1l0.2,1.8c0,0.4,0.1,0.9-0.5,1
	s-0.7-0.4-0.7-0.9L67.4,32l-0.9,0.1l0.2,1.9c0,0.4,0.1,0.9,0.5,1.2c0.3,0.2,0.8,0.3,1.2,0.3c0.4,0,0.8-0.2,1.1-0.5
	c0.3-0.4,0.3-0.8,0.2-1.2L69.5,31.8z M65,34.9l-0.3-0.2L64,35.1l0.7,0.3c-0.1,0.1-0.2,0.1-0.2,0.1c-0.5,0.2-1.1-0.1-1.3-0.6
	c-0.2-0.4,0.1-1,0.6-1.2s1.1,0.1,1.2,0.6C65,34.5,65.1,34.7,65,34.9 M66,34c-0.4-1-1.4-1.4-2.4-1.1c-0.9,0.3-1.5,1.3-1.2,2.3
	c0.4,1,1.4,1.5,2.4,1.1c0.3-0.1,0.6-0.3,0.8-0.5l0.4,0.2l0.7-0.4l-0.7-0.4C66,34.9,66,34.4,66,34 M54.1,51.9H52l0,0l2.1-1.6v-0.9
	h-3.4v0.9h2.1l0,0l-2.1,1.6v0.9h3.4V51.9z M56.4,37.6l2.4,2.5l0.6-0.6L57,37L56.4,37.6z M86,51.2h0.8l-0.1-1.1h0.6l0.1,1l0.8-0.1
	l-0.1-1h0.6l0.1,1.1h0.8l-0.1-1.9l-3.4,0.2L86,51.2z M83,36.8l-2.4,2.5l1.4,1.4l0.5-0.5l-0.8-0.7l1.9-1.9L83,36.8z M88.1,46.5v0.1
	c0.1,0.3,0.1,0.6-0.3,0.7c-0.4,0.1-0.5-0.2-0.6-0.5v-0.1L88.1,46.5z M85.5,47.2l1.1-0.3l0.1,0.5c0.2,0.8,0.6,1.1,1.4,0.9
	c0.8-0.2,1-0.8,0.8-1.5l-0.3-1.3l-3.3,0.8L85.5,47.2z M59.9,35.7l-0.5-0.6l-1.9,1.4l0.5,0.6l0.6-0.4l1.6,2.1l0.7-0.5l-1.6-2.1
	L59.9,35.7z M54.5,47.9l-3.4-0.6l-0.2,0.9l3.4,0.6L54.5,47.9z"/>
<polygon class="st0" points="44,65.2 11.8,65.2 11.8,61.5 42,61.5 "/>
<polygon class="st0" points="96.2,65.2 128.5,65.2 128.5,61.5 98.2,61.5 "/>
</svg>
