<?xml version="1.0" encoding="utf-8"?>
<!-- Generator: Adobe Illustrator 20.1.0, SVG Export Plug-In . SVG Version: 6.00 Build 0)  -->
<svg version="1.1" id="Layer_1" xmlns="http://www.w3.org/2000/svg" xmlns:xlink="http://www.w3.org/1999/xlink" x="0px" y="0px"
	 viewBox="0 0 216.4 44.8" style="enable-background:new 0 0 216.4 44.8;" xml:space="preserve">
<style type="text/css">
	.st0{fill:#1D1D1B;}
	.st1{fill:#C4003E;}
</style>
<path class="st0" d="M43.2,10.5h0.2c0.6,0,1.4-0.1,1.4-0.9s-0.7-0.9-1.4-0.9h-0.2V10.5z M47.6,14.7h-2.5l-1.9-2.9l0,0v2.9h-2V7.1h3
	c1.5,0,2.6,0.7,2.6,2.3c0,1-0.6,2-1.7,2.1L47.6,14.7z"/>
<path class="st0" d="M51.5,10.7c0,1.3,1,2.3,2.1,2.3s2.1-1,2.1-2.3c0-1-1-2-2.1-2S51.5,9.7,51.5,10.7 M57.9,10.7
	c0,2.5-1.8,4.2-4.2,4.2c-2.4,0-4.2-1.7-4.2-4.2c0-2.3,2-3.9,4.2-3.9S57.9,8.4,57.9,10.7"/>
<polygon class="st0" points="59.2,7.1 61.5,7.1 63,9.1 64.5,7.1 66.8,7.1 64,11 64,14.7 62,14.7 62,11 "/>
<path class="st0" d="M71.5,9.4L71.5,9.4l-0.8,2.4h1.6L71.5,9.4z M70,13.3l-0.5,1.3h-2.1L70.3,7h2.2l2.9,7.6h-2.2l-0.5-1.3H70z"/>
<polygon class="st0" points="79.8,13 82.1,13 82.1,14.7 77.8,14.7 77.8,7.1 79.8,7.1 "/>
<path class="st0" d="M95.2,9.6c-0.4-0.5-1.1-0.8-1.7-0.8c-1.2,0-2,0.9-2,2.1s0.8,2.1,2.1,2.1c0.6,0,1.3-0.3,1.7-0.8v2.4
	c-0.7,0.2-1.1,0.4-1.7,0.4c-1.1,0-2.1-0.4-2.9-1.1c-0.8-0.8-1.2-1.7-1.2-2.9c0-1,0.4-2,1.1-2.8S92.4,7,93.5,7c0.6,0,1.2,0.1,1.8,0.4
	L95.2,9.6L95.2,9.6z"/>
<path class="st0" d="M100,10.7c0,1.3,1,2.3,2.1,2.3s2.1-1,2.1-2.3c0-1-1-2-2.1-2S100,9.7,100,10.7 M106.4,10.7
	c0,2.5-1.8,4.2-4.2,4.2c-2.4,0-4.2-1.7-4.2-4.2c0-2.3,2-3.9,4.2-3.9S106.4,8.4,106.4,10.7"/>
<polygon class="st0" points="111.1,13 113.5,13 113.5,14.7 109.1,14.7 109.1,7.1 111.1,7.1 "/>
<polygon class="st0" points="117.9,13 120.1,13 120.1,14.7 115.9,14.7 115.9,7.1 117.9,7.1 "/>
<polygon class="st0" points="124.6,8.7 124.6,10 126.9,10 126.9,11.7 124.6,11.7 124.6,13 127,13 127,14.7 122.6,14.7 122.6,7.1 
	127,7.1 127,8.7 "/>
<path class="st0" d="M137.5,10.4c0,1.1-0.1,2.1-0.8,3c-0.7,1-1.9,1.5-3.1,1.5c-2.4,0-4.1-1.6-4.1-4c0-2.5,1.7-4.1,4.1-4.1
	c1.6,0,2.8,0.7,3.4,2.1l-1.9,0.8c-0.3-0.7-0.8-1.2-1.6-1.2c-1.3,0-2,1.2-2,2.4c0,1.2,0.7,2.4,2,2.4c0.9,0,1.5-0.4,1.6-1.3h-1.6v-1.6
	L137.5,10.4L137.5,10.4z"/>
<polygon class="st0" points="142.2,8.7 142.2,10 144.5,10 144.5,11.7 142.2,11.7 142.2,13 144.5,13 144.5,14.7 140.2,14.7 
	140.2,7.1 144.5,7.1 144.5,8.7 "/>
<path class="st0" d="M154.6,10.7c0,1.3,1,2.3,2.1,2.3c1.2,0,2.1-1,2.1-2.3c0-1-1-2-2.1-2C155.5,8.7,154.6,9.7,154.6,10.7 M161,10.7
	c0,2.5-1.8,4.2-4.2,4.2c-2.4,0-4.2-1.7-4.2-4.2c0-2.3,2-3.9,4.2-3.9S161,8.4,161,10.7"/>
<polygon class="st0" points="165.8,8.7 165.8,10 168,10 168,11.7 165.8,11.7 165.8,14.7 163.8,14.7 163.8,7.1 168.1,7.1 168.1,8.7 
	"/>
<polygon class="st0" points="177.2,7.1 179.1,7.1 180.6,11.1 182.4,7.1 184.4,7.1 185.5,14.7 183.5,14.7 183,10.3 182.9,10.3 
	181,14.7 180.2,14.7 178.5,10.3 178.5,10.3 177.9,14.7 176,14.7 "/>
<path class="st0" d="M194.6,7.1v4.3c0,1,0,1.9-0.8,2.7c-0.6,0.6-1.6,0.8-2.5,0.8s-1.9-0.2-2.5-0.8c-0.8-0.7-0.8-1.7-0.8-2.7V7.1h2v4
	c0,1,0.1,2.1,1.3,2.1c1.3,0,1.3-1.1,1.3-2.1v-4H194.6z"/>
<path class="st0" d="M201.9,9c-0.4-0.3-0.8-0.5-1.3-0.5c-0.4,0-0.8,0.2-0.8,0.6s0.5,0.6,0.9,0.7l0.5,0.2c1.1,0.3,1.9,0.8,1.9,2.1
	c0,0.8-0.2,1.5-0.8,2c-0.6,0.5-1.4,0.7-2.2,0.7c-1,0-1.9-0.3-2.7-0.9l0.8-1.6c0.5,0.4,1.1,0.8,1.8,0.8c0.5,0,1-0.2,1-0.8
	c0-0.6-0.8-0.7-1.2-0.9c-1.2-0.4-2.1-0.7-2.1-2.1c0-1.5,1.1-2.6,2.6-2.6c0.8,0,1.7,0.2,2.4,0.6L201.9,9z"/>
<rect x="205.6" y="7.1" class="st0" width="2" height="7.6"/>
<path class="st0" d="M216.2,9.6c-0.4-0.5-1.1-0.8-1.7-0.8c-1.2,0-2,0.9-2,2.1s0.8,2.1,2.1,2.1c0.6,0,1.3-0.3,1.7-0.8v2.4
	c-0.7,0.2-1.1,0.4-1.7,0.4c-1.1,0-2.1-0.4-2.9-1.1c-0.8-0.8-1.2-1.7-1.2-2.9c0-1,0.4-2,1.1-2.8c0.7-0.8,1.8-1.2,2.9-1.2
	c0.6,0,1.2,0.1,1.8,0.4L216.2,9.6L216.2,9.6z"/>
<path class="st1" d="M12.9,25.8c-0.2-0.1-0.3-0.3-0.4-0.5c-0.1,0.2-0.3,0.6-0.4,1.3c0,0,0.2,0.2,0.2,0.4
	C12.5,26.4,12.6,26,12.9,25.8 M11.5,26.7c0,0,0.2-0.2,0.4-0.2c0-0.2,0.1-0.4,0.1-0.6c-0.1-0.1-0.2-0.2-0.4-0.3
	C11.5,26,11.5,26.3,11.5,26.7 M6.5,27.9L6.5,27.9L6.5,27.9L6.5,27.9C6.5,27.9,6.5,27.8,6.5,27.9L6.5,27.9L6.5,27.9
	c-0.2,0-0.4,0-0.7,0.1H5.6l0,0l0,0c0,0,0,0,0,0.1l0,0l0,0l0,0c0.1,0,0.1,0,0.2,0C6.1,28,6.2,28,6.5,27.9 M9,24.8
	c-0.1-0.4-0.3-0.7-0.4-0.9c0,0.2,0,0.5-0.1,0.8c0,0.1,0,0.1,0,0.2c0.1,0.1,0.2,0.3,0.3,0.5C8.8,25.2,8.9,24.9,9,24.8 M12.9,23.7
	c0.1-0.2,0.3-0.3,0.3-0.3h0.1v-0.1c0,0,0.1-0.2,0.4-0.2c0.1,0,0.1,0,0.2,0c0.3,0.1,0.5,0.2,0.6,0.3c0,0,0,0.1,0.1,0.1v0.1
	c0,0.1,0,0.2,0,0.2c0,0.2,0,0.3,0,0.5c0,0.1-0.1,0.2-0.1,0.3c0,0.1,0,0.1-0.1,0.2c0,0.1,0,0.2-0.1,0.3c0,0.1,0,0.2,0.1,0.3
	c0,0,0,0,0.1,0s0.1-0.1,0.1-0.1c-0.1-0.1,0-0.3,0.1-0.5c0-0.1,0.1-0.1,0.1-0.2c0.1-0.1,0.1-0.2,0.2-0.3c0.1-0.2,0.1-0.4,0.1-0.6
	c0-0.1,0-0.2,0-0.3v-0.1c0.1,0,0.1,0,0.2,0h0.1c0.2,0,0.3,0.1,0.3,0.2s0.1,0.1,0.1,0.2c-0.1-0.1-0.3-0.1-0.3-0.1h-0.1v0.1
	c0,0.1,0.1,0.1,0.1,0.1s0.2,0,0.3,0.3c0.1,0.2,0.1,0.3,0,0.4c0,0.1-0.1,0.2-0.2,0.3c-0.1-0.1-0.1-0.2-0.2-0.3h-0.1h-0.1
	c0,0-0.1,0.1,0,0.2s0.1,0.2,0.1,0.3c0.1,0.2-0.1,0.4-0.3,0.5l-0.1,0.1c-0.1,0.1-0.2,0.3-0.1,0.4l0,0l0,0c-0.3,0-0.7-0.2-0.9-0.4
	c-0.1-0.1-0.2-0.2-0.2-0.3c-0.2-0.4,0.1-0.7,0.1-0.7s0.1-0.1,0-0.2h-0.1h-0.1c0,0-0.1,0.1-0.1,0.2l0,0v0.1v0.1v0.1c0,0,0,0.1,0,0.2
	l0,0l0,0c-0.2-0.1-0.3-0.4-0.3-0.7c0-0.2,0-0.4,0.1-0.6c0.2-0.2,0.5-0.3,0.5-0.3c0.1,0,0.1-0.1,0.1-0.1c0-0.1-0.1-0.1-0.1-0.1
	s-0.5,0.1-0.7,0.4l0,0l0,0C12.8,23.9,12.8,23.8,12.9,23.7 M12.5,24.8c0.1,0.8,0.5,1,0.8,1.1c0.3,0.4,0.9,0.7,1.4,0.7
	c0.1,0,0.2,0,0.3,0h0.1c0,0,0,0,0.1-0.1v-0.1v-0.1l0,0l0,0l-0.1-0.1H15l0,0l0,0v-0.1c0,0,0.1,0,0.1-0.1c0.1-0.1,0.4-0.3,0.4-0.6
	c0.2-0.1,0.4-0.3,0.4-0.5c0.1-0.2,0.1-0.5,0-0.7c0-0.2,0-0.5-0.1-0.7s-0.3-0.3-0.6-0.4h-0.1c-0.2,0-0.3,0-0.4,0.1
	c-0.2-0.2-0.4-0.4-0.8-0.4c-0.1,0-0.2,0-0.2,0c-0.4,0-0.6,0.2-0.7,0.3c-0.1,0.1-0.3,0.2-0.5,0.4c-0.1,0.3-0.1,0.7,0,1.1
	C12.5,24.7,12.5,24.7,12.5,24.8 M10.5,26.3h0.3c0,0.1,0-0.4,0-0.6c-0.1,0-0.3,0.1-0.4,0.3L10.5,26.3z M12.2,23.8
	c-0.1,0.3-0.3,0.6-0.4,0.9c0.2,0.2,0.3,0.4,0.3,0.6c0.1-0.2,0.2-0.4,0.3-0.5c0,0,0-0.1,0-0.2C12.2,24.3,12.2,24.1,12.2,23.8
	 M9.1,21.2L9.1,21.2c0.2-0.3,0.4-0.4,0.7-0.4c0.1,0,0.2,0,0.3,0.1l0,0V21c0,0.1,0,0.1,0,0.2s0,0.2,0,0.3v0.1c0,0,0,0.1,0.1,0.1
	c0,0.1,0.1,0.1,0.1,0.2V22v0.1l0,0c0,0,0,0.1,0,0.2v0.1c0,0.1,0,0.2,0,0.3c0,0.1,0.1,0.2,0.1,0.2h0.1v-0.1c-0.1-0.1,0-0.3,0-0.4l0,0
	c0-0.1,0-0.1,0.1-0.2c0,0,0,0,0-0.1V22c0-0.1,0-0.1,0-0.1c0-0.1,0-0.2,0-0.2v-0.1v-0.1v-0.1c0-0.1,0-0.1,0-0.2c0,0,0-0.1,0.1-0.1
	l0,0l0,0V21c0.1,0,0.2-0.1,0.3-0.1c0.3,0,0.5,0.1,0.7,0.4l0,0c0,0,0.3,0.2,0.3,0.6c-0.1-0.2-0.3-0.4-0.6-0.6c0,0,0,0-0.1,0
	c0,0-0.1,0-0.1,0.1v0.1c0,0,0,0.1,0.1,0.1c0.3,0.1,0.5,0.4,0.5,0.7c0,0.2,0,0.5-0.1,0.6c0-0.2-0.1-0.4-0.2-0.6h-0.1h-0.1v0.1v0.1
	c0.2,0.2,0.2,0.5,0.2,0.8c0,0.1-0.1,0.2-0.3,0.3c0-0.1,0-0.3-0.1-0.5L11,23l0,0c-0.1,0-0.1,0.1-0.1,0.2c0.1,0.2,0.1,0.4-0.2,0.7
	c-0.1,0-0.1,0.1-0.2,0.2c-0.1-0.1-0.1-0.1-0.2-0.2c-0.4-0.2-0.3-0.5-0.2-0.7c0-0.1,0-0.1-0.1-0.2c0,0,0,0-0.1,0c0,0-0.1,0-0.1,0.1
	c-0.1,0.2-0.1,0.3-0.1,0.5c-0.1-0.1-0.2-0.2-0.3-0.3c-0.1-0.2,0-0.6,0.1-0.8c0,0,0-0.1,0-0.2H9.4H9.3c-0.1,0.1-0.2,0.3-0.3,0.6
	c-0.1-0.2-0.2-0.4-0.1-0.6c0-0.3,0.2-0.5,0.5-0.7c0,0,0,0,0.1-0.1v-0.1l-0.1-0.1l0,0c-0.2,0.1-0.4,0.3-0.6,0.5
	C8.9,21.5,9.1,21.3,9.1,21.2 M9.1,23.4c0.1,0.3,0.4,0.6,0.8,0.7c0,0,0.1,0.1,0.2,0.1c0.1,0.1,0.1,0.2,0.1,0.3l0,0v0.1h0.1h0.1l0,0
	l0,0l0,0l0,0l0.1-0.1c0,0,0,0,0-0.1l0,0c0,0,0-0.1,0.1-0.2c0.1,0,0.1-0.1,0.2-0.1c0.4-0.1,0.7-0.3,0.8-0.7c0.4-0.3,0.4-0.8,0.4-0.9
	c0.4-0.9-0.1-1.3-0.3-1.4c-0.3-0.4-0.7-0.5-0.9-0.5c-0.2,0-0.4,0.1-0.6,0.1c-0.1-0.1-0.3-0.1-0.6-0.1c-0.2,0-0.6,0.1-0.9,0.5
	c-0.2,0.1-0.7,0.6-0.3,1.4C8.8,22.7,8.9,23.1,9.1,23.4 M11.8,25v0.1c0,0.1-0.1,0.2-0.1,0.3c0.2,0.1,0.3,0.4,0.3,0.5
	c0-0.2,0.1-0.3,0.2-0.5C12,25.2,12,25.1,11.8,25 M9.1,25c-0.2,0.1-0.3,0.3-0.4,0.4c0.1,0.2,0.1,0.3,0.2,0.5c0-0.1,0.1-0.3,0.3-0.5
	c0-0.1-0.1-0.2-0.1-0.3V25z M9,25.9c0,0.2,0.1,0.4,0.1,0.6c0.2,0,0.4,0.2,0.4,0.2c0-0.4,0-0.7-0.1-1.1C9,25.6,9,25.8,9,25.9
	 M10.5,28.7c-1,0-2.2,0.3-2.3,0.3c-0.1,0.1-0.1,0.2,0,0.2c0,0.1,0.1,0.1,0.2,0c0.1,0,1.1-0.3,2.1-0.3s2,0.2,2.1,0.3c0,0,0,0,0.1,0
	c0,0,0.1,0,0.1-0.1c0.1-0.1,0.1-0.2,0-0.2C12.6,28.9,11.5,28.7,10.5,28.7 M10.5,27.3c-0.1,0-0.1-0.1-0.1-0.1c0-0.1,0.1-0.1,0.1-0.1
	c0.1,0,0.1,0.1,0.1,0.1C10.5,27.3,10.5,27.3,10.5,27.3 M13,27.8L13,27.8l0.2-0.3l-0.5-0.2c0,0,0.2,0.1,0.1,0.4
	c-0.2-0.1-0.3-0.2-0.3-0.2l-0.1,0.3l-0.1,0.3c0,0,0.2-0.1,0.4,0c-0.1,0.2-0.3,0.3-0.5,0.3S12,28.2,12,28.1c0,0,0.1,0,0.1-0.1
	s0-0.1-0.1-0.1l0,0c0-0.1,0.1-0.1,0.2-0.1s0.1,0.1,0.1,0.2v0.1c0.1,0,0.2-0.1,0.2-0.2s0-0.3-0.2-0.3c-0.1,0-0.1,0-0.2,0
	c0,0,0,0,0-0.1C12.2,27.2,12,27,12,27s-0.2,0.1-0.3,0.4v0.1l-0.1-0.1c-0.1,0-0.3,0.1-0.3,0.2s0,0.2,0.1,0.3v-0.1
	c0-0.1,0.1-0.1,0.2-0.1s0.1,0.1,0.1,0.2l0,0c-0.1,0-0.1,0-0.1,0.1c0,0,0,0.1,0.1,0.1c-0.1,0.1-0.3,0.2-0.4,0.1
	c-0.2,0-0.4-0.2-0.4-0.6c0.4,0,0.4,0.2,0.4,0.2V27c0,0-0.1,0.2-0.4,0.2c0-0.4,0.2-0.5,0.2-0.5h-0.7c0,0,0.2,0.1,0.2,0.5
	c-0.4,0-0.4-0.2-0.4-0.2v0.8c0,0,0.1-0.2,0.4-0.2c0,0.4-0.2,0.5-0.4,0.6c-0.2,0-0.3,0-0.4-0.1L9.9,28c0-0.1-0.1-0.1-0.1-0.1l0,0
	c0-0.1,0-0.2,0.1-0.2s0.2,0,0.2,0.1v0.1c0.1-0.1,0.1-0.2,0.1-0.3c0-0.1-0.2-0.2-0.3-0.2c-0.1,0-0.1,0-0.1,0.1c0,0,0,0,0-0.1
	C9.7,27.1,9.5,27,9.5,27s-0.1,0.2-0.1,0.5v0.1c-0.1,0-0.1,0-0.2,0S9,27.8,9,27.9c0,0.1,0.1,0.2,0.2,0.2c0,0,0,0,0-0.1s0-0.2,0.1-0.2
	s0.2,0,0.2,0.1l0,0c-0.1,0-0.1,0.1-0.1,0.1l0.1,0.1c-0.1,0.2-0.2,0.3-0.3,0.3c-0.2,0-0.4-0.1-0.5-0.3l0,0c0.2-0.1,0.4,0,0.4,0
	L9,27.8l-0.1-0.3c0,0-0.1,0.2-0.3,0.2c-0.1-0.3,0.1-0.4,0.1-0.4l-0.5,0.2l0.2,0.3c0,0,0,0,0.1,0s0.2,0.1,0.2,0.2s0,0.1-0.1,0.1
	l0.3,0.6c0,0,1.1-0.3,2.2-0.3s2.2,0.3,2.2,0.3l0.3-0.6L13.5,28C12.9,27.9,13,27.8,13,27.8 M10,24.6C10,24.6,10,24.5,10,24.6v-0.1
	v-0.1c0,0,0,0,0-0.1c-0.1,0-0.1-0.1-0.1-0.1H9.8c0,0.1,0.1,0.3,0.1,0.6c0.3,0.1,0.4,0.3,0.4,0.5c0-0.3,0-0.5,0-0.5
	C10.1,24.7,10.1,24.7,10,24.6 M10,26.3h0.3V26c-0.1-0.2-0.2-0.3-0.4-0.3C10,25.9,10,26.4,10,26.3 M9.9,25c0,0.1,0,0.1,0,0.2
	s0,0.2,0,0.3c0.2,0.1,0.3,0.3,0.4,0.5c0-0.2,0-0.4,0-0.5C10.2,25.2,10,25,9.9,25 M8,25.8C8.2,26,8.4,26.4,8.6,27
	c0-0.2,0.2-0.4,0.2-0.4c-0.1-0.6-0.3-1-0.4-1.3C8.2,25.5,8.1,25.7,8,25.8 M11,24.7c0.1-0.2,0.1-0.4,0.1-0.6H11l-0.1,0.1v0.1v0.1v0.1
	c0,0,0,0,0,0.1c-0.1,0.1-0.1,0.1-0.2,0.2c0,0,0,0.2,0,0.5C10.6,25.1,10.8,24.9,11,24.7 M5.2,24.3C5.4,24,5.5,24,5.5,24
	c0.1,0,0.1-0.1,0.1-0.1v-0.1H5.5c0,0-0.1,0-0.3,0.1c0-0.1,0-0.1,0.1-0.2s0.2-0.2,0.3-0.2h0.1c0.1,0,0.1,0,0.2,0v0.1
	c0,0.1,0,0.2,0,0.3c0,0.2,0.1,0.4,0.1,0.6c0,0.1,0.1,0.2,0.2,0.3c0,0.1,0.1,0.1,0.1,0.2c0.1,0.2,0.1,0.3,0.1,0.5c0,0,0,0.1,0.1,0.1
	c0,0,0,0,0.1,0c0-0.1,0.1-0.2,0.1-0.3c0-0.1,0-0.2-0.1-0.3c0-0.1,0-0.1-0.1-0.2c0-0.1-0.1-0.2-0.1-0.3c0-0.2,0-0.3,0-0.5
	c0-0.1,0-0.2,0-0.2v-0.1c0-0.1,0-0.1,0.1-0.1c0.1-0.1,0.3-0.3,0.6-0.3c0.1,0,0.1,0,0.2,0c0.3,0,0.4,0.2,0.4,0.2v0.1h0.1
	c0,0,0.2,0.1,0.3,0.3c0.1,0.1,0.1,0.3,0.1,0.4l0,0l0,0C8,24,7.6,23.9,7.6,23.9c-0.1,0-0.1,0-0.1,0.1s0,0.1,0.1,0.1s0.4,0.1,0.5,0.3
	c0.1,0.1,0.1,0.3,0.1,0.6c-0.1,0.3-0.2,0.5-0.3,0.7l0,0l0,0c0-0.1,0-0.1,0-0.2v-0.1v-0.1v-0.1l0,0c0-0.1-0.1-0.2-0.1-0.2H7.7H7.6
	c0,0.1,0,0.1,0,0.2c0,0,0.3,0.3,0.1,0.7c0,0.1-0.1,0.2-0.2,0.3c-0.2,0.2-0.6,0.4-0.9,0.4l0,0l0,0c0-0.1,0-0.3-0.1-0.4l-0.1-0.1
	c-0.2-0.2-0.3-0.3-0.3-0.5c0-0.1,0.1-0.2,0.1-0.3c0,0,0-0.1,0-0.2H6.1H6c-0.1,0.1-0.1,0.2-0.2,0.3c-0.1-0.1-0.2-0.2-0.2-0.3
	C5.2,24.6,5.2,24.5,5.2,24.3 M5,24.9c0.1,0.2,0.2,0.3,0.4,0.5c0,0.3,0.3,0.5,0.4,0.6c0,0,0.1,0,0.1,0.1v0.1l0,0l0,0H5.8v0.1l0,0l0,0
	v0.1v0.1c0,0,0,0,0.1,0.1c0,0,0,0,0.1,0s0.2,0,0.3,0c0.5,0,1.1-0.3,1.4-0.7c0.2-0.1,0.7-0.3,0.8-1.1c0-0.1,0-0.1,0-0.2
	c0.2-0.4,0.2-0.8,0-1.1c-0.1-0.3-0.3-0.4-0.5-0.4c-0.1-0.1-0.3-0.3-0.7-0.3c-0.1,0-0.2,0-0.2,0c-0.4,0.1-0.6,0.3-0.8,0.4
	c-0.1-0.1-0.3-0.1-0.4-0.1H5.7c-0.3,0-0.5,0.1-0.6,0.4C5,23.7,4.9,24,5,24.2C4.9,24.4,4.9,24.7,5,24.9 M9.2,35.1
	c-0.2,0-0.4,0.2-0.4,0.4c0,0.2,0.2,0.4,0.4,0.4c0.2,0,0.4-0.2,0.4-0.4S9.5,35.1,9.2,35.1 M10.4,38.3c-0.2,0-0.4,0.2-0.4,0.4
	c0,0.2,0.2,0.4,0.4,0.4c0.2,0,0.4-0.2,0.4-0.4C10.8,38.5,10.5,38.3,10.4,38.3 M10.9,35.7c-0.2,0-0.4,0.2-0.4,0.4
	c0,0.2,0.2,0.4,0.4,0.4c0.2,0,0.4-0.2,0.4-0.4S11,35.7,10.9,35.7 M13.6,33.8c-0.2,0-0.4,0.2-0.4,0.4c0,0.2,0.2,0.4,0.4,0.4
	c0.2,0,0.4-0.2,0.4-0.4C14,34,13.9,33.8,13.6,33.8 M16.2,34.3L16.2,34.3c-0.9,0.4-1.8,0.6-2.7,0.6c-0.5,0-1,0-1.5-0.1
	c0-0.5,0.1-1,0.3-1.4c3-0.8,5.2-3.6,5.2-6.9c0-3.9-3.2-7.1-7.1-7.1s-7.1,3.2-7.1,7.1c0,2.4,1.2,4.6,3.1,5.9
	c-0.2,0.1-0.5,0.3-0.7,0.5l-0.4-0.3c-0.2-0.2-0.6-0.1-0.8,0.1c-0.1,0.1-0.1,0.3-0.1,0.4c0,0.2,0.1,0.3,0.2,0.4l0.5,0.4
	C5,34.2,5,34.4,4.9,34.7c-2.6-1.8-4.3-4.7-4.3-8.1c0-5.4,4.4-9.8,9.8-9.8s9.8,4.4,9.8,9.8C20.2,29.7,18.6,32.5,16.2,34.3 M14.8,36.2
	c-0.1,0-0.2,0.1-0.3,0.1c-0.2,0.1-0.4,0.3-0.6,0.5c-0.4,0.4-0.8,0.8-1.4,0.8l0,0c-0.1,0-0.2,0-0.2,0c-0.1,0-0.3,0-0.5-0.1
	c-0.6-0.1-1.5-0.3-2.6-0.7c-0.1,0-0.3-0.1-0.4-0.2c-0.4-0.1-0.7-0.3-1.1-0.5c0.3-0.2,0.6-0.5,0.8-0.9c0.2-0.4,0.3-0.8,0.3-1.2
	c1,0.6,2.8,1.4,4.8,1.3c0.8,0,1.7-0.2,2.5-0.5C15.9,35.8,15.2,36,14.8,36.2 M12.8,39.5c0,0.5-0.4,0.8-0.9,0.8c-0.1,0-0.3,0-0.4-0.1
	h-0.1c-0.1,0-0.1,0-0.2,0.1s-0.1,0.2,0,0.3c0.1,0.1,0.2,0.3,0.2,0.5s-0.1,0.5-0.3,0.6c-0.2,0.2-0.4,0.3-0.7,0.3l0,0
	c-0.5,0-0.9-0.4-0.9-0.9c0-0.2,0.1-0.3,0.1-0.5c0.1-0.1,0-0.2,0-0.3c0,0-0.1-0.1-0.2-0.1H9.2c-0.1,0.1-0.2,0.1-0.4,0.1
	c-0.5,0-0.9-0.4-0.9-0.8c0.5-0.5,0.9-1.1,1-2c0-0.1,0.1-0.3,0.1-0.4c1.1,0.4,2,0.6,2.7,0.7c0,0.1,0.1,0.3,0.1,0.4
	C12,38.8,12.4,39.2,12.8,39.5 M10.4,32.5c-0.1,0-0.2,0-0.3,0c-0.1,0-0.3,0-0.4,0c-0.2,0-0.7,0-1,0.4c0,0,0,0.1-0.1,0.1
	c-0.1-0.2-0.3-0.4-0.6-0.6c-0.3-0.2-0.7-0.2-1.1-0.2C5,31,3.6,28.9,3.6,26.5c0-3.7,3-6.7,6.7-6.7s6.7,3,6.7,6.7
	c0,2.6-1.4,4.8-3.5,5.9c-0.2-0.2-0.7-0.3-1.1-0.2C11.6,32.4,10.6,32.5,10.4,32.5 M11.8,33.5c-0.1,0.4-0.2,0.8-0.2,1.2
	c-1.1-0.3-2.1-0.7-2.7-1.1c0-0.2,0-0.4,0.1-0.5s0.3-0.2,0.5-0.2c0.1,0,0.3,0,0.5,0c0.1,0,0.3,0,0.4,0s0.2,0,0.4,0
	c0.4,0,0.8,0,1.3-0.2c0,0.1-0.1,0.2-0.1,0.2V33v0.1C11.9,33.3,11.9,33.4,11.8,33.5L11.8,33.5 M4.8,33.1c-0.1,0-0.1-0.1-0.1-0.2
	s0-0.1,0-0.2s0.1-0.1,0.2-0.1s0.1,0,0.1,0l1.6,1.2c0.1,0,0.1,0.1,0.1,0.2s0,0.1,0,0.2c-0.1,0.1-0.2,0.1-0.3,0L4.8,33.1z M6.5,35.8
	c-0.2,0-0.3,0-0.5-0.1c-0.5-0.3-0.6-0.9-0.5-1.5l0.6,0.4c0.1,0.1,0.2,0.1,0.3,0.1c0.2,0,0.4-0.1,0.5-0.2S7,34.2,7,34.1
	c0-0.2-0.1-0.3-0.2-0.4l-0.6-0.5c0.3-0.3,0.6-0.4,1-0.4c0.2,0,0.3,0,0.5,0.1c0.3,0.2,0.4,0.4,0.5,0.8s0,0.8-0.2,1.2
	C7.6,35.5,7,35.8,6.5,35.8 M10.5,16.3c-5.6,0-10.2,4.6-10.2,10.2c0,3.6,1.9,6.8,4.7,8.6c0.1,0.5,0.4,0.9,0.8,1.2
	c0.4,0.2,0.9,0.3,1.4,0.1c0.5,0.3,1,0.5,1.5,0.7c0,0.2,0,0.3-0.1,0.5C8.3,38.4,8,39,7.6,39.4l-0.2,0.2v0.2c0.1,0.7,0.7,1.2,1.4,1.3
	l0,0c0,0.1,0,0.1,0,0.2c0,0.7,0.6,1.4,1.4,1.4h0.1c0.4,0,0.7-0.2,1-0.4c0.3-0.3,0.4-0.6,0.4-1c0-0.1,0-0.2,0-0.2l0,0
	c0.7,0,1.4-0.6,1.4-1.3v-0.2l-0.2-0.2c-0.3-0.3-0.6-0.6-0.7-1c0-0.1,0-0.1-0.1-0.2c0.1,0,0.1,0,0.2,0l0,0c0.8,0,1.3-0.5,1.7-0.9
	c0.2-0.2,0.3-0.3,0.5-0.4c0.1,0,0.2-0.1,0.3-0.1c0.6-0.2,1.4-0.5,1.6-1.9c2.5-1.9,4.1-4.8,4.1-8.2C20.6,20.8,16,16.3,10.5,16.3
	 M6,28.7L6,28.7h0.1l0,0l0,0C6,28.7,6,28.6,6,28.6c0-0.1,0-0.1,0-0.2s0.1-0.1,0.2-0.1h0.1l0,0l0,0c0,0,0,0,0.1,0l0,0l0,0
	c0,0,0,0,0.1,0l0,0l0,0l0,0l0,0c0,0.1,0,0.1,0,0.2l0,0l0,0h0.1l0,0l0,0c0-0.1,0-0.1,0-0.2c0,0,0-0.1-0.1-0.1l0,0l0,0
	c0,0-0.1,0-0.1-0.1l0,0l0,0c-0.1,0-0.2,0-0.3,0c-0.1,0-0.2,0.1-0.2,0.2c-0.1,0.1-0.1,0.2,0,0.3C5.9,28.6,6,28.7,6,28.7L6,28.7z
	 M15.2,33c-0.2,0-0.4,0.2-0.4,0.4c0,0.2,0.2,0.4,0.4,0.4c0.2,0,0.4-0.2,0.4-0.4S15.5,33,15.2,33 M12.5,36.1c-0.2,0-0.4,0.2-0.4,0.4
	c0,0.2,0.2,0.4,0.4,0.4c0.2,0,0.4-0.2,0.4-0.4C13,36.2,12.8,36.1,12.5,36.1 M12.5,30.3C12.5,30.3,12.5,30.2,12.5,30.3L12.5,30.3
	c0-0.1,0.1-0.1,0.1-0.1c0.1,0,0.3,0,0.4-0.1c0.4-0.2,0.6-0.7,0.7-1.3c0.1-0.3,0.2-0.6,0.3-0.9c0.3-0.6,0.7-0.6,0.8-0.6
	c0.1,0,0.4,0.1,0.7,0.2c-0.1,0.1-0.2,0.2-0.2,0.4c0,0.1-0.1,0.2-0.1,0.3c-0.3,0.8-0.8,2.2-1.8,2.4c-0.1,0-0.2,0-0.2,0
	C12.9,30.7,12.6,30.5,12.5,30.3 M13.5,30.9c0.7-0.1,1.3-0.7,1.8-1.9c0,0,0.1,0.1,0.3,0.2c0.1,0,0.2,0.1,0.3,0.1c0.1,0,0.1,0,0.2,0
	s0.1-0.1,0.1-0.1L16,29.1h-0.1h-0.1L15.7,29c0-0.1,0.1-0.2,0.2-0.3l0.1-0.1c0.1-0.1,0.1-0.1,0.2-0.2s0.1-0.2,0.1-0.3
	c0-0.3-0.1-0.5-0.3-0.5H16c-0.4,0-1.1-0.2-1.1-0.2c-0.1,0-0.6,0-1,0.7c-0.1,0.3-0.2,0.6-0.3,0.9c-0.1,0.5-0.3,1-0.6,1.1
	c-0.1,0.1-0.2,0.1-0.3,0.1c-0.4,0-0.3-0.4-0.3-0.5l0,0c-0.1,0-0.1,0-0.2-0.1c-0.1,0.3-0.1,0.7,0.1,1c0.1,0.2,0.4,0.4,0.9,0.4
	C13.2,30.9,13.4,30.9,13.5,30.9 M9.2,31.1C9.2,31.2,9.2,31.2,9.2,31.1L9.2,31.1c-0.1,0-0.1,0-0.1,0c0.1-0.4,0.1-1.3,0.1-1.7
	C9,29.4,9,29.5,9,29.5c0,0.7,0.1,0.9,0.1,0.9s0,0.7-0.1,0.8c0,0.1,0,0.3,0.2,0.3s0.2-0.2,0.2-0.3c0-0.1,0.1-0.6,0.1-0.7
	c0.1-0.1,0.1-0.2,0.2-0.3c-0.1,0-0.1,0.1-0.2,0.1c0,0,0.1-0.1,0.2-0.3c0-0.1,0-0.2,0-0.2c-0.1,0-0.1,0.1-0.2,0.1
	c0,0,0.1-0.2,0.2-0.3c0-0.1,0-0.1,0-0.1c-0.1,0-0.2,0-0.3,0C9.4,29.7,9.4,30.7,9.2,31.1 M7,29L7,29L7,29L7,29c-0.1,0-0.2,0-0.3,0.1
	l0,0c0-0.1,0-0.2-0.1-0.2c0.1,0,0.2-0.1,0.3-0.1l0,0l0,0v-0.1l0,0l0,0l0,0c-0.3,0.1-0.5,0.1-0.8,0.2l0,0l0,0c0,0,0,0,0,0.1l0,0l0,0
	c0.1-0.1,0.3-0.1,0.4-0.1c0,0.1,0.1,0.1,0.1,0.2l0,0c-0.1,0-0.2,0.1-0.3,0.1l0,0l0,0c0,0,0,0,0,0.1l0,0l0,0l0,0
	C6.5,29.2,6.6,29.1,7,29L7,29L7,29L7,29 M10.6,30c0,0,0.1-0.2,0.3-0.4v-0.1c-0.1,0-0.2,0.1-0.3,0.2c0,0,0.1-0.2,0.2-0.3
	c0-0.1,0-0.1,0-0.1s-0.1,0-0.3,0v2c0,0.1,0,0.1-0.1,0.1s-0.1,0-0.1-0.1v-2c-0.1,0-0.2,0-0.3,0c0,0,0,0,0,0.1
	c0.1,0.1,0.2,0.3,0.2,0.3c-0.1-0.1-0.2-0.1-0.3-0.2v0.1c0.1,0.1,0.3,0.4,0.3,0.4c-0.1-0.1-0.2-0.2-0.3-0.2c0,0.1,0,0.1,0,0.2
	c0,0.3,0.3,0.5,0.3,0.5s0,0.6,0,0.8c0,0.2,0.2,0.2,0.2,0.2s0.2,0,0.2-0.2s0-0.8,0-0.8S11,30.3,11,30c0-0.1,0-0.1,0-0.2
	C10.9,29.9,10.8,29.9,10.6,30 M8.4,30.3c-0.1,0.2-0.4,0.3-0.7,0.3c-0.1,0-0.2,0-0.2,0c-1-0.2-1.5-1.6-1.8-2.4c0-0.1-0.1-0.2-0.1-0.3
	c-0.1-0.2-0.1-0.3-0.2-0.4C5.6,27.4,6,27.3,6,27.3c0.1,0,0.5,0,0.8,0.6c0.1,0.3,0.2,0.6,0.3,0.9c0.1,0.6,0.3,1.1,0.7,1.3
	c0.2,0.1,0.3,0.1,0.4,0.1C8.2,30.3,8.4,30.3,8.4,30.3L8.4,30.3C8.5,30.2,8.4,30.3,8.4,30.3 M8.5,29.5L8.5,29.5
	c0,0.1,0.1,0.5-0.3,0.5c-0.1,0-0.2,0-0.3-0.1c-0.3-0.2-0.4-0.6-0.6-1.1c-0.1-0.3-0.2-0.7-0.3-0.9c-0.4-0.7-0.9-0.7-1-0.7
	c0,0-0.7,0.2-1.1,0.2H4.8c-0.2,0-0.4,0.2-0.3,0.5c0,0.1,0.1,0.2,0.1,0.3c0,0.1,0.1,0.1,0.2,0.2l0.1,0.1c0.2,0.1,0.3,0.2,0.2,0.3
	c0,0.1,0,0.1-0.1,0.1c0,0,0,0-0.1,0H4.8c-0.1,0-0.1,0-0.1,0.1s0,0.1,0.1,0.1c0,0,0.1,0,0.2,0s0.2,0,0.3-0.1c0.2-0.1,0.2-0.1,0.3-0.2
	c0.5,1.1,1.1,1.8,1.8,1.9c0.1,0,0.2,0,0.3,0c0.5,0,0.8-0.3,0.9-0.4c0.2-0.3,0.2-0.7,0.1-1C8.6,29.5,8.5,29.5,8.5,29.5 M15,28.3
	c-0.2-0.1-0.3-0.1-0.5-0.2c0.3-0.1,0.7-0.3,0.7-0.3l-0.7-0.2l-0.1,0.1c0,0,0.4,0.1,0.5,0.1c-0.1,0-0.7,0.3-0.7,0.3
	S14.8,28.3,15,28.3L15,28.3z M14.8,29.1L14.8,29.1L14.8,29.1C14.8,29,14.8,29,14.8,29.1C14.8,29,14.8,29,14.8,29.1L14.8,29.1
	L14.8,29.1c-0.2-0.2-0.4-0.3-0.7-0.4l0,0l0,0c0,0,0,0,0,0.1l0,0l0,0C14.4,28.9,14.5,29,14.8,29.1 M13.9,29.3c0-0.1,0.1-0.3,0.3-0.3
	h0.1c0.1,0,0.2,0.1,0.2,0.2s0,0.2-0.1,0.3L13.9,29.3z M14.5,29.7L14.5,29.7c0,0,0.2-0.2,0.1-0.4c0-0.1-0.1-0.2-0.3-0.3
	c-0.1,0-0.1,0-0.2,0c-0.3,0-0.4,0.4-0.4,0.4l0,0L14.5,29.7L14.5,29.7z M12,29.4c0,0-0.1,0-0.3-0.1c0,0.4,0,1.3,0.1,1.7
	c0,0,0,0.1-0.1,0.1l0,0c0,0-0.1,0-0.1-0.1c-0.1-0.5-0.1-1.4-0.1-1.8c-0.1,0-0.2,0-0.3,0v0.1c0.1,0.1,0.2,0.3,0.2,0.3
	c-0.1-0.1-0.1-0.1-0.2-0.1c0,0.1,0,0.2,0,0.2c0.1,0.1,0.2,0.3,0.2,0.3c-0.1,0-0.1-0.1-0.2-0.1c0,0.1,0.1,0.3,0.1,0.3
	c0,0.2,0,0.6,0.1,0.7c0,0.1,0,0.3,0.2,0.3s0.2-0.1,0.2-0.3c0-0.1-0.1-0.8-0.1-0.8S12,30.1,12,29.4 M14.9,28.8L14.9,28.8L14.9,28.8
	c0.1-0.1,0.1-0.2,0.1-0.3l0,0l0,0c0,0,0,0-0.1,0l0,0l0,0c0,0.1-0.1,0.1-0.1,0.2c-0.1,0-0.2-0.1-0.2-0.1v-0.1v-0.1l0,0l0,0
	c0,0,0,0-0.1,0l0,0l0,0c0,0,0,0.1-0.1,0.1v0.1c-0.1,0-0.1,0-0.2-0.1v-0.1v-0.1l0,0l0,0H14l0,0l-0.1,0.3l0,0l0,0
	C14.4,28.6,14.9,28.8,14.9,28.8 M10.5,25.9c0-0.1,0.2-0.3,0.4-0.5c0-0.1,0-0.2,0-0.3c0-0.1,0-0.1,0-0.2c-0.1,0-0.4,0.2-0.4,0.4
	S10.5,25.7,10.5,25.9 M15.9,6.2c0.2,0,0.4-0.2,0.4-0.4c0-0.2-0.2-0.4-0.4-0.4c-0.2,0-0.4,0.2-0.4,0.4C15.5,6.1,15.6,6.2,15.9,6.2
	 M16.9,6.8c0.2,0,0.4-0.2,0.4-0.4C17.2,6.2,17,6,16.9,6c-0.2,0-0.4,0.2-0.4,0.4C16.5,6.6,16.6,6.8,16.9,6.8 M10.5,11.5
	c-0.2,0-0.4-0.2-0.4-0.4s0.2-0.4,0.4-0.4c0.2,0,0.4,0.2,0.4,0.4S10.8,11.5,10.5,11.5 M17,11.9c0.1,0,0.2,0,0.2,0.1l0.4-0.9l-1.3-0.6
	c0,0,0.4,0.3,0.3,1c-0.5-0.2-0.7-0.6-0.7-0.6l-0.3,0.7l-0.3,0.7c0,0,0.4-0.3,0.9-0.1l0,0c-0.3,0.5-0.8,0.8-1.4,0.7
	c-0.5-0.1-0.8-0.4-0.9-0.9c0.1,0,0.2-0.1,0.3-0.2c0-0.1-0.1-0.3-0.2-0.3l0,0c0.1-0.2,0.3-0.3,0.5-0.3s0.3,0.3,0.3,0.5
	c0,0.1-0.1,0.1-0.1,0.2c0.2-0.1,0.4-0.2,0.5-0.5c0.1-0.4-0.1-0.7-0.5-0.8c-0.2,0-0.3,0-0.4,0.1c0-0.1,0-0.1,0.1-0.2
	c0.2-0.7-0.2-1.3-0.2-1.3s-0.6,0.3-0.7,1.1c0,0.1,0,0.1,0,0.2c-0.1-0.1-0.2-0.2-0.4-0.2c-0.3-0.1-0.7,0.1-0.8,0.5
	c-0.1,0.3,0,0.5,0.2,0.7c0-0.1,0-0.1,0-0.2c0-0.2,0.3-0.4,0.5-0.3c0.2,0,0.3,0.3,0.3,0.5h-0.1c-0.1,0-0.3,0.1-0.3,0.2s0,0.3,0.1,0.3
	c-0.3,0.3-0.7,0.5-1,0.4c-0.4-0.1-0.7-0.4-0.9-0.8l0,0c0.6,0,0.9,0.4,0.9,0.4v-1.6c0,0-0.3,0.4-0.9,0.4c0.1-0.7,0.6-0.9,0.6-0.9H9.2
	c0,0,0.5,0.2,0.6,0.9c-0.6,0-0.9-0.4-0.9-0.4V12c0,0,0.3-0.4,0.9-0.4l0,0C9.8,12,9.5,12.3,9,12.4c-0.4,0.1-0.8-0.1-1-0.4
	c0.1,0,0.2-0.2,0.1-0.3c0-0.1-0.2-0.2-0.3-0.2H7.7c0-0.2,0.1-0.4,0.3-0.5c0.2,0,0.4,0.1,0.5,0.3c0,0.1,0,0.1,0,0.2
	c0.2-0.2,0.3-0.4,0.2-0.7c-0.1-0.4-0.4-0.6-0.8-0.5c-0.1,0-0.3,0.1-0.4,0.2c0-0.1,0-0.1,0-0.2C7.3,9.6,6.8,9.2,6.8,9.2
	s-0.3,0.5-0.2,1.3c0,0.1,0,0.1,0.1,0.2c-0.1-0.1-0.3-0.1-0.4-0.1C6,10.7,5.7,11,5.8,11.4c0.1,0.3,0.3,0.4,0.5,0.5
	c0,0-0.1-0.1-0.1-0.2c-0.1-0.2,0.1-0.4,0.3-0.5c0.2,0,0.4,0.1,0.5,0.3l0,0c-0.1,0-0.2,0.2-0.2,0.3C6.8,11.9,6.9,12,7,12
	c-0.1,0.4-0.5,0.8-0.9,0.9C5.6,13,5,12.7,4.8,12.2l0,0c0.5-0.2,0.9,0.1,0.9,0.1l-0.3-0.7l-0.3-0.7c0,0-0.2,0.5-0.7,0.6
	c-0.1-0.7,0.3-1,0.3-1l-1.3,0.6l0.4,0.8c0,0,0.1,0,0.2,0c0.2,0,0.4,0.2,0.4,0.4c0,0.2-0.1,0.3-0.2,0.4L4.9,14
	C5,13.9,5,13.9,5.1,13.8c0.1,0,2.1-1.2,5.5-1.2l0,0c3.4,0,5.4,1.1,5.5,1.2c0.1,0,0.1,0.1,0.2,0.2l0.7-1.3c-0.2-0.1-0.3-0.2-0.3-0.4
	C16.5,12.1,16.8,11.9,17,11.9 M14.8,6.2c0.2,0,0.4-0.2,0.4-0.4c0-0.2-0.2-0.4-0.4-0.4c-0.2,0-0.4,0.2-0.4,0.4S14.5,6.2,14.8,6.2
	 M18.5,9.3c0-0.2-0.2-0.4-0.4-0.4c-0.2,0-0.4,0.2-0.4,0.4c0,0.2,0.2,0.4,0.4,0.4S18.5,9.5,18.5,9.3 M12.5,6.7c0.2,0,0.4-0.2,0.4-0.4
	c0-0.2-0.2-0.4-0.4-0.4c-0.2,0-0.4,0.2-0.4,0.4C12.2,6.5,12.4,6.7,12.5,6.7 M13.6,6.4C13.9,6.4,14,6.2,14,6c0-0.2-0.2-0.4-0.4-0.4
	c-0.2,0-0.4,0.2-0.4,0.4C13.2,6.3,13.5,6.4,13.6,6.4 M17.6,7.6c0.2,0,0.4-0.2,0.4-0.4c0-0.2-0.2-0.4-0.4-0.4c-0.2,0-0.4,0.2-0.4,0.4
	C17.2,7.5,17.5,7.6,17.6,7.6 M10.5,14.8c0.4,0,0.6-0.2,0.6-0.5s-0.3-0.5-0.6-0.5S9.9,14,9.9,14.3S10,14.8,10.5,14.8 M8,15
	c0.4,0,0.6-0.2,0.6-0.5S8.3,14,8,14c-0.4,0-0.6,0.2-0.6,0.5C7.4,14.8,7.6,15,8,15 M18.2,10.4c0-0.2-0.2-0.4-0.4-0.4
	c-0.2,0-0.4,0.2-0.4,0.4c0,0.2,0.2,0.4,0.4,0.4S18.2,10.6,18.2,10.4 M12.9,15c0.4,0,0.6-0.2,0.6-0.5S13.2,14,12.9,14
	c-0.4,0-0.6,0.2-0.6,0.5C12.2,14.8,12.5,15,12.9,15 M5.2,15.3c-0.1,0-0.1-0.1-0.1-0.2c0-0.2,0-0.4,0.2-0.5c1.9-0.9,3.8-1,5.1-1
	c1.3,0,3.2,0.2,5.1,1c0.2,0.1,0.3,0.3,0.2,0.5c0,0.1-0.1,0.2-0.1,0.2l-0.4,0.3l0.4,0.3c0.1,0.1,0.2,0.3,0.1,0.4
	c0,0.2-0.2,0.3-0.3,0.3c-0.1,0-0.1,0-0.2,0h-0.1c-2-0.9-3.7-1.1-4.7-1.1c-1.1,0-2.8,0.2-4.7,1.1H5.6c-0.1,0-0.1,0-0.2,0
	c-0.2,0-0.3-0.1-0.3-0.3c0-0.2,0-0.3,0.1-0.4l0.4-0.3L5.2,15.3z M4.8,16.4c0.1,0.5,0.6,0.7,1,0.5c0.2-0.1,2.2-1.1,4.7-1.1
	s4.5,1,4.7,1.1c0.1,0,0.2,0.1,0.3,0.1c0.3,0,0.6-0.2,0.7-0.6c0.1-0.3,0-0.6-0.3-0.8c0.1-0.1,0.2-0.3,0.3-0.5
	c0.1-0.4-0.1-0.8-0.4-0.9c-1.9-0.9-3.9-1.1-5.3-1.1s-3.3,0.2-5.3,1.1c-0.3,0.2-0.5,0.5-0.4,0.9c0,0.2,0.1,0.3,0.3,0.5
	C4.8,15.8,4.6,16.1,4.8,16.4 M15.5,8.8c-0.6,0-0.8,0-1-0.2l-0.1-0.1c-0.4-0.3-0.8-0.6-1.6-0.3c-0.3,0.1-0.5,0.2-0.7,0.3
	c-0.2,0.1-0.5,0.3-0.7,0.3v0.4c0.3,0,0.5-0.1,0.8-0.3c0.2-0.1,0.4-0.2,0.7-0.3c0.6-0.2,1.1,0,1.3,0.2l0.1,0.1
	c0.3,0.3,0.5,0.3,1.3,0.3c0.5,0,0.9,0.9,0.9,1l0.6,0.3l0,0c0.5-1.1,0.4-2.1-0.1-3c-0.7-1.1-2.1-1.3-3.1-0.9
	c-0.8,0.3-1.6,0.5-2.4,0.5v0.7c0.9-0.1,1.8-0.3,2.6-0.6c0.7-0.3,1.8-0.1,2.2,0.6c0.3,0.5,0.5,1.2,0.3,1.8
	C16.5,9.2,16.1,8.8,15.5,8.8 M6.8,7.2c0.9,0.3,1.8,0.5,2.6,0.6V7.1C8.6,7,7.8,6.9,7,6.6C6,6.2,4.5,6.4,3.9,7.5
	c-0.5,0.9-0.6,1.9-0.1,3l0,0l0.6-0.3c0,0,0.4-0.9,0.9-1c0.8,0,1,0,1.2-0.3l0.1-0.1c0.2-0.2,0.7-0.4,1.3-0.2c0.3,0.1,0.5,0.2,0.6,0.3
	C8.8,9,9,9.2,9.2,9.2V8.8C9,8.8,8.9,8.7,8.5,8.5C8.3,8.4,8.1,8.3,7.8,8.2C7,7.9,6.6,8.2,6.2,8.5L6.1,8.6c-0.2,0.2-0.4,0.2-1,0.2
	C4.6,8.8,4.2,9.3,4,9.7C3.9,9,4,8.4,4.3,7.9C5,7.1,6,6.9,6.8,7.2 M3,10c-0.2,0-0.4,0.2-0.4,0.4c0,0.2,0.2,0.4,0.4,0.4
	c0.2,0,0.4-0.2,0.4-0.4C3.5,10.2,3.2,10,3,10 M6.2,6.2c0.2,0,0.4-0.2,0.4-0.4c0-0.2-0.2-0.4-0.4-0.4C6,5.4,5.9,5.6,5.9,5.8
	S6,6.2,6.2,6.2 M3.2,7.6c0.2,0,0.4-0.2,0.4-0.4c0-0.2-0.2-0.4-0.4-0.4C3,6.8,2.9,7,2.9,7.2C3,7.5,3,7.6,3.2,7.6 M2.9,8.6
	c0.2,0,0.4-0.2,0.4-0.4C3.2,8,3,7.8,2.9,7.8C2.6,7.8,2.5,8,2.5,8.2C2.5,8.5,2.6,8.6,2.9,8.6 M4,6.8c0.2,0,0.4-0.2,0.4-0.4
	C4.4,6.2,4.2,6,4,6C3.8,6,3.6,6.2,3.6,6.4C3.8,6.6,3.9,6.8,4,6.8 M10.4,33.2c-0.2,0-0.4,0.2-0.4,0.4c0,0.2,0.2,0.4,0.4,0.4
	c0.2,0,0.4-0.2,0.4-0.4S10.5,33.2,10.4,33.2 M17.8,8.3c0,0.2,0.2,0.4,0.4,0.4c0.2,0,0.4-0.2,0.4-0.4c0-0.2-0.2-0.4-0.4-0.4
	C17.9,7.9,17.8,8,17.8,8.3 M2.9,9.7c0.2,0,0.4-0.2,0.4-0.4c0-0.2-0.2-0.4-0.4-0.4c-0.2,0-0.4,0.2-0.4,0.4S2.6,9.7,2.9,9.7 M7.4,6.4
	c0.2,0,0.4-0.2,0.4-0.4c0-0.2-0.2-0.4-0.4-0.4C7.1,5.6,7,5.8,7,6C7,6.3,7.1,6.4,7.4,6.4 M5.1,6.2c0.2,0,0.4-0.2,0.4-0.4
	c0-0.2-0.2-0.4-0.4-0.4c-0.2,0-0.4,0.2-0.4,0.4C4.8,6.1,5,6.2,5.1,6.2 M8.4,6.7c0.2,0,0.4-0.2,0.4-0.4c0-0.2-0.2-0.4-0.4-0.4
	C8.1,5.9,8,6.1,8,6.3S8.1,6.7,8.4,6.7 M11.4,5.9c-0.1,0.4-0.5,0.8-0.9,0.8l0,0c-0.5,0-0.8-0.3-0.9-0.8H11.4z M10.4,4.8v0.7H9.6
	C9.6,5.1,10,4.8,10.4,4.8 M10.5,3.4c0.2,0,0.3,0.1,0.3,0.3c0,0.2-0.1,0.3-0.3,0.3c-0.2,0-0.3-0.1-0.3-0.3
	C10.1,3.5,10.4,3.4,10.5,3.4 M11.4,5.5h-0.8V4.8C11,4.8,11.4,5.1,11.4,5.5 M10.1,7c0.1,0,0.2,0,0.3,0l0,0c0.1,0,0.2,0,0.3,0
	c0,0.2-0.2,0.3-0.3,0.3C10.2,7.3,10.1,7.2,10.1,7 M10.5,8.5c-0.2,0-0.3-0.1-0.3-0.3c0-0.2,0.2-0.3,0.3-0.3c0.2,0,0.3,0.2,0.3,0.3
	C10.9,8.3,10.6,8.5,10.5,8.5 M9,5.7c0,0.5,0.3,1,0.7,1.2v2.4h0.4c0-0.2,0.2-0.3,0.3-0.3c0.2,0,0.3,0.1,0.3,0.3h0.4V6.9
	c0.4-0.2,0.7-0.7,0.7-1.2c0-0.6-0.4-1.2-1-1.3c0.1,0,0.1-0.1,0.1-0.2S10.8,4,10.8,4l0,0c0.5-0.1,0.8,0.3,0.8,0.3V3.1
	c0,0-0.3,0.4-0.8,0.3c-0.1-0.5,0.3-0.8,0.3-0.8H9.9c0,0,0.4,0.3,0.3,0.8l0,0C9.7,3.5,9.4,3.1,9.4,3.1v1.2c0,0,0.3-0.4,0.8-0.3l0,0
	c-0.1,0-0.1,0.1-0.1,0.2s0,0.1,0.1,0.2C9.5,4.5,9,5.1,9,5.7 M2.1,30.4l0.6-0.3L3,30.6l-0.6,0.3l0.2,0.4L4,30.5l-0.2-0.4l-0.6,0.3
	l-0.3-0.5l0.6-0.3l-0.2-0.4L1.9,30L2.1,30.4z M18.8,28.9c-0.3-0.1-0.4,0-0.6,0.3c-0.1,0.1-0.2,0.2-0.3,0.2c-0.1,0-0.1-0.2-0.1-0.2
	c0-0.1,0.2-0.2,0.3-0.3l-0.3-0.3c-0.2,0.1-0.3,0.3-0.4,0.5s-0.1,0.3,0,0.5s0.2,0.3,0.4,0.3c0.2,0.1,0.4,0,0.6-0.2l0.1-0.1
	c0-0.1,0.1-0.2,0.2-0.1c0.1,0,0.1,0.1,0.1,0.2s-0.1,0.2-0.2,0.2l0.3,0.3c0.1-0.1,0.2-0.3,0.3-0.4C19.2,29.4,19,29.1,18.8,28.9
	 M4,21.8C3.9,22,3.6,22,3.3,21.9c-0.2-0.1-0.2-0.4-0.1-0.6s0.4-0.3,0.6-0.1C4.1,21.3,4.1,21.6,4,21.8 M4.1,20.8
	c-0.4-0.3-0.9-0.1-1.2,0.2c-0.3,0.4-0.2,0.9,0.1,1.2c0.4,0.3,0.9,0.2,1.3-0.2C4.6,21.6,4.5,21.1,4.1,20.8 M3.2,22.6
	c-0.2-0.1-0.4,0-0.6,0.2l-0.1,0.1C2.4,23,2.4,23,2.3,23s-0.1-0.2-0.1-0.2c0-0.1,0.1-0.2,0.2-0.2l-0.2-0.3c-0.1,0.1-0.3,0.3-0.3,0.4
	c-0.1,0.3,0,0.6,0.3,0.7s0.4,0,0.6-0.2C2.9,23.1,3,23,3.1,23c0.1,0,0.1,0.2,0.1,0.3c-0.1,0.1-0.2,0.2-0.3,0.3l0.2,0.3
	c0.2-0.1,0.3-0.3,0.4-0.4s0.1-0.3,0-0.5C3.5,22.8,3.5,22.7,3.2,22.6 M1.9,28.6c-0.1-0.2,0.1-0.5,0.3-0.5c0.3-0.1,0.5,0.1,0.6,0.3
	c0.1,0.2-0.1,0.5-0.4,0.6C2.1,29,2,28.8,1.9,28.6 M2.5,29.4c0.5-0.1,0.8-0.6,0.7-1.1c-0.1-0.5-0.6-0.8-1.1-0.7
	c-0.5,0.1-0.7,0.6-0.6,1.1C1.5,29.1,2,29.5,2.5,29.4 M13.8,17.9l-0.6,0.7v-0.9l-0.4-0.1L12,19l0.4,0.1l0.4-0.8l0,0v1l0.2,0.1
	l0.7-0.8l0,0l-0.2,0.9l0.4,0.1l0.3-1.6L13.8,17.9z M19.5,27.4l0.1-0.4L18,26.8l-0.1,0.4l1,0.1l0,0l-1.1,0.6l-0.1,0.4l1.6,0.2
	l0.1-0.4l-1-0.1l0,0L19.5,27.4z M10.6,18.9H11l0.1-1.6h-0.4L10.6,18.9z M15.1,19.8l-0.3-0.2l0.4-0.3l0,0L15.1,19.8z M15.4,18.7
	l-1.4,1l0.4,0.2l0.3-0.2l0.5,0.3L15,20.3l0.4,0.2l0.4-1.7L15.4,18.7z M16.8,30.6l0.3,0.2l0.2-0.4l0.2,0.1l-0.2,0.4l0.3,0.2l0.2-0.4
	l0.2,0.1l-0.2,0.4l0.3,0.2l0.5-0.8l-1.4-0.8L16.8,30.6z M18.8,22.5l-0.3-0.4H18l0.2-0.5l-0.3-0.4l-0.4,0.9l-0.7,0.4l0.2,0.4l0.7-0.4
	H18.8z M10.1,17.3H9.8l0.1,0.9c0,0.2,0,0.4-0.2,0.5c-0.3,0-0.3-0.2-0.3-0.4l-0.1-0.9H8.9L9,18.3c0,0.2,0.1,0.4,0.2,0.6
	C9.3,19,9.6,19,9.8,19s0.4-0.1,0.5-0.2c0.1-0.2,0.1-0.4,0.1-0.6L10.1,17.3z M8,18.7l-0.1-0.1l-0.4,0.2L7.8,19c0,0-0.1,0-0.1,0.1
	c-0.2,0.1-0.5,0-0.6-0.3c-0.1-0.2,0.1-0.5,0.3-0.6c0.2-0.1,0.5,0.1,0.6,0.3C8,18.5,8,18.6,8,18.7 M8.5,18.3
	c-0.2-0.5-0.7-0.7-1.1-0.5s-0.7,0.6-0.6,1.1C7,19.4,7.5,19.6,8,19.4c0.2-0.1,0.3-0.1,0.4-0.3l0.2,0.1L8.9,19l-0.4-0.2
	C8.5,18.7,8.5,18.5,8.5,18.3 M2.9,26.8h-1l0,0l1-0.8v-0.4H1.2V26h1l0,0l-1,0.8v0.4h1.6V26.8z M4,20l1.1,1.2l0.3-0.3l-1.1-1.2L4,20z
	 M18,26.4h0.4v-0.5h0.3v0.5h0.4v-0.5h0.3v0.5h0.4l-0.1-0.9l-1.6,0.1L18,26.4z M16.5,19.6l-1.1,1.2l0.7,0.6l0.2-0.3L16,20.7l0.9-0.9
	L16.5,19.6z M19,24.2L19,24.2c0.1,0.2,0.1,0.4-0.1,0.4s-0.2-0.1-0.3-0.2v-0.1L19,24.2z M17.8,24.5l0.5-0.1l0.1,0.2
	c0.1,0.4,0.3,0.5,0.7,0.4c0.4-0.1,0.5-0.4,0.4-0.7l-0.2-0.6l-1.6,0.4L17.8,24.5z M5.5,19.1l-0.2-0.3l-0.9,0.7l0.2,0.3l0.3-0.2l0.8,1
	L6,20.3l-0.8-1L5.5,19.1z M3,24.9l-1.6-0.3L1.3,25l1.6,0.3L3,24.9z"/>
<rect x="29.2" y="0" class="st0" width="1.8" height="44.8"/>
<path class="st0" d="M51.2,29.6c1,0.1,1.8,0.1,2.9-0.1c1.9-0.2,5.1-1.4,5.6-3.4c0.2-1.2-0.6-1.9-2.1-1.9c-0.8,0-2.1,0.5-2.7,0.9
	c0.2,0.3,0.5,0.7,0.6,1.2c0.3,0.9,0.2,1.6,0.1,1.6s0-0.5-0.5-1.6c-0.2-0.4-0.6-0.8-0.8-1C53.2,26.1,52.5,27.7,51.2,29.6L51.2,29.6z
	 M44.9,26.1c0,1.6,2.3,2.7,4.5,3.2c1.6-2,3.1-3.9,4.7-4.5c-0.9-0.7-2.6-1.5-4.9-1.5C46.2,23.2,44.9,24.6,44.9,26.1L44.9,26.1z
	 M44.4,35.9c-0.5-0.1-1.2-0.2-1.9-0.2c-1.4,0-2.6,0.6-2.7,1.3c-0.1,0.4,0.6,0.6,1.1,0.6C41.9,37.5,43.5,36.8,44.4,35.9L44.4,35.9z
	 M44.4,26.2c0-1.8,1.8-3.4,5-3.4c2.5,0,4.1,0.8,5.4,1.8c0.8-0.4,2.1-0.6,3-0.7c1.8-0.1,3.3,0.9,3,2.5c-0.4,2.3-4.6,3.5-6.6,3.7
	c-1.1,0.1-2.2,0.1-3.3,0c-2.2,3.4-3.4,3.9-5.5,5.4c0.4,0.1,0.8,0.2,1.8,0.5c1.2,0.3,2.8,0.6,3.5,0.6c2,0,3.4-0.4,5.4-2.3
	c0.2-0.1,0.4-0.4,0.5-0.3s0.5-0.1,0.4,0c-2.3,2.3-4.4,3.8-6.5,3.8c-1.3,0-2.7-0.3-3.6-0.7c-1.1-0.5-1.6-0.9-2-1
	c-0.8,0.7-2.5,1.8-4.5,1.8c-1.3,0-2.1-0.3-2-0.8c0.1-1.2,3.1-1.8,5-1.8c0.5,0,1.3,0.1,1.6,0.1c1.9-1.8,2.2-2.9,4.2-5.6
	C46.8,29.3,44.4,28,44.4,26.2L44.4,26.2z"/>
<path class="st0" d="M71,37.7c-0.6,0-1-0.4-1-0.9c0.1-0.7,0.8-1.6,1.4-2.4c0.5-0.6,1-1.2,1.4-1.7c0.1-0.2,0.2-0.4,0-0.5
	s-0.5,0.1-0.7,0.2c-0.6,0.3-1.5,0.9-2.6,1.7c-1.5,1.1-2.2,1.9-3.7,3.1c-0.3,0.2-0.6,0.3-1,0.3c-0.5,0-0.7-0.1-0.4-0.5
	c0.3-0.6,0.8-1.4,1.5-2.3c0.5-0.7,0.8-1,1.4-1.8c0.2-0.2,0.3-0.4,0.2-0.6c0-0.1-0.2-0.1-0.3,0c-0.4,0.2-0.9,0.6-1.3,0.9
	c-0.5,0.4-1,0.9-1.5,1.4c-0.2,0.1-0.5,0.3-0.6,0.2c-0.1-0.1,0.1-0.3,0.2-0.4c0.5-0.5,1.3-1.3,1.9-1.8c0.8-0.6,1.6-1.1,2.3-1.1
	c0.6,0,0.8,0.4,0.8,0.8s-0.4,0.9-0.7,1.4c-0.4,0.5-0.8,1-1.2,1.6c0,0.1-0.4,0.5-0.1,0.4l0.1-0.1c0.1-0.1,0.2-0.1,0.3-0.2
	c0.2-0.1,0.3-0.3,0.5-0.5c0.4-0.3,0.7-0.6,1.1-0.9c0.2-0.2,0.5-0.4,0.8-0.6c1.2-0.9,2.7-1.9,3.7-1.9c0.7,0,1.1,0.3,1,0.9
	s-0.8,1.4-1.3,2.1c-0.5,0.6-0.9,1.1-1.1,1.4c-0.3,0.4-0.3,0.6-0.1,0.7c0.2,0.1,0.5,0,0.8-0.1c0.4-0.2,0.9-0.5,1.6-1
	c0.5-0.4,1.2-1,1.6-1.4c0.2-0.1,0.6-0.5,0.7-0.4s-0.3,0.6-0.4,0.7c-0.4,0.4-1.3,1.2-2,1.8C73.5,36.9,72,37.7,71,37.7L71,37.7z"/>
<path class="st0" d="M77,37c0.6,0,1.7-0.6,2.6-1.4c1.1-0.9,2.2-2.2,2.3-2.8c0-0.4-0.2-0.6-0.6-0.6c-0.7,0-1.7,0.8-2.9,2
	c-1.3,1.2-1.9,2.1-1.9,2.5C76.5,36.9,76.8,37,77,37L77,37z M80.6,37.7c-0.6,0-0.9-0.3-0.9-0.7c0-0.4,0.2-0.8,0.5-1.2l0,0
	c-0.9,0.8-2.4,1.9-3.6,1.9c-0.7,0-1.5-0.2-1.4-1.3c0.1-0.5,0.3-1.1,0.9-1.8l0,0c-0.1,0.1-0.2,0.2-0.3,0.3c-0.2,0.1-0.4,0.3-0.4,0.2
	c-0.1-0.1,0.1-0.3,0.2-0.4c0.3-0.3,0.8-0.6,1.1-0.9c0.4-0.3,1-0.7,1.7-1c1.2-0.6,2.4-1.1,3.3-0.9c0.6,0.1,0.9,0.7,0.8,1l0,0
	c1.5-2,1.3-1.7,3-3.6c1.2-1.4,3.3-4,4.7-5.4c0.4-0.4,0.8-0.6,1.2-0.6c0.3,0,0.5,0.1,0.5,0.2c-0.9,0.9-2.7,3.1-4.5,5.4
	c-1.1,1.3-1,1-2.9,3.5c-1,1.3-2.4,3.3-2.7,3.9c-0.2,0.4-0.3,0.6-0.1,0.7c0.2,0.2,0.7,0,1-0.2s0.8-0.6,1.3-0.9
	c0.6-0.5,1.2-0.9,1.7-1.4c0.3-0.3,0.5-0.4,0.9-0.7c0.3-0.2,0.6-0.4,0.9-0.6l0.2-0.1c0.1,0.1-1.5,1.5-1.6,1.6
	c-0.4,0.4-1.4,1.2-2.2,1.9C82.9,36.9,81.8,37.7,80.6,37.7L80.6,37.7z"/>
<path class="st0" d="M100.2,37.7c-0.6,0-1-0.4-1-0.9c0.1-0.7,0.9-1.7,1.4-2.4c0.5-0.6,1-1.2,1.4-1.7c0.1-0.2,0.2-0.4,0-0.5
	s-0.5,0.1-0.7,0.2c-0.6,0.3-1.5,0.9-2.6,1.7c-1.5,1.1-2.3,2.1-3.8,3.2c-0.3,0.2-0.6,0.3-1,0.3c-0.5,0-0.7-0.1-0.4-0.5
	c0.3-0.6,0.9-1.6,1.5-2.4c0.5-0.7,0.8-1,1.4-1.8c0.2-0.2,0.3-0.5,0.2-0.6c-0.1-0.1-0.3-0.1-0.5,0c-0.4,0.2-0.8,0.6-1.2,0.9
	c-0.5,0.4-1.2,1-1.7,1.5c-0.2,0.1-0.3,0.2-0.4,0.1s0.1-0.3,0.2-0.4c0.5-0.5,1.3-1.3,1.9-1.8c0.8-0.6,1.6-1.1,2.3-1.1
	c0.6,0,0.8,0.4,0.8,0.8s-0.4,0.9-0.7,1.4c-0.4,0.5-0.8,1-1.2,1.6c-0.1,0.1-0.1,0.1-0.2,0.2c0,0.1-0.1,0.2,0,0.2l0.1-0.1
	c0.1-0.1,0.2-0.2,0.2-0.2c0.2-0.1,0.4-0.3,0.5-0.5c0.4-0.3,0.8-0.7,1.2-1c0.3-0.2,0.5-0.4,0.8-0.6c1.2-0.9,2.6-1.8,3.6-1.8
	c0.7,0,1.1,0.3,1,0.9s-0.8,1.4-1.3,2.1c-0.5,0.6-0.9,1.2-1.1,1.5c-0.3,0.4-0.3,0.6-0.1,0.7c0.2,0.1,0.5,0,0.8-0.1
	c0.4-0.2,1-0.6,1.6-1.1c0.5-0.4,1.2-1,1.6-1.4c0.2-0.1,0.3-0.3,0.4-0.2c0.1,0.1-0.2,0.3-0.3,0.4c-0.4,0.4-1.3,1.2-2,1.8
	C102.6,36.9,101.5,37.7,100.2,37.7L100.2,37.7z"/>
<path class="st0" d="M90,35.4c-1.1,1.1-2.2,1.7-2.9,1.7c-0.4,0-0.5-0.2-0.5-0.6c0.1-0.7,0.8-1.8,1.8-2.7c0.2-0.2,0.3-0.3,0.5-0.5
	c0.5-0.5,1.4-1.2,2.1-1.4c1-0.2,0.8,0.7,0.3,1.7C90.9,34.3,90.2,35,90,35.4 M94,34.1c-0.1-0.1-0.3,0.1-0.4,0.2
	c-0.3,0.3-0.7,0.7-1.2,1c-0.5,0.4-0.9,0.5-1.1,0.6c-0.2,0-0.5,0.1-0.6,0c1-0.9,1.8-1.9,1.9-2.7c0.1-0.5-0.1-0.9-0.4-1.2
	c0,0-0.6-0.8-2.7,0l0,0c-0.5,0.2-1,0.4-1.6,0.7c-0.7,0.4-1.2,0.7-1.6,1c-0.3,0.3-0.8,0.6-1.1,1c-0.1,0.1-0.3,0.3-0.3,0.4
	c0.1,0.1,0.3-0.1,0.4-0.2c0.2-0.2,0.4-0.4,0.7-0.6l0,0c-0.5,0.6-0.9,1.3-0.9,2.1c-0.1,0.9,0.6,1.5,1.6,1.5c1.4,0,2.7-0.9,3.6-1.6
	c0.2,0.1,0.8,0.1,1,0.1c0.3-0.1,0.8-0.2,1.3-0.6c0.4-0.3,0.9-0.7,1.2-1C94,34.4,94,34.2,94,34.1"/>
<path class="st0" d="M60.5,35.4c-1,1.1-2.3,1.7-3.1,1.7c-0.4,0-0.5-0.2-0.5-0.6c0.1-0.7,1-1.8,1.9-2.7c0.1-0.1,0.2-0.2,0.3-0.3
	c0.5-0.5,1.6-1.4,2.4-1.5c0.9-0.1,0.9,0.7,0.4,1.4C61.6,34.1,60.9,35.1,60.5,35.4 M64.5,34.1c-0.1-0.1-0.3,0.1-0.4,0.2
	c-0.3,0.3-0.7,0.7-1.2,1c-0.5,0.4-0.9,0.5-1.1,0.6c-0.2,0-0.5,0.1-0.6,0c1-0.9,1.8-1.9,1.9-2.7c0.1-0.5-0.1-0.9-0.4-1.2l0,0
	c-0.1-0.1-0.7-0.7-2.5-0.1c-0.6,0.2-1.2,0.4-1.8,0.8c-0.7,0.4-1.3,0.8-1.7,1c-0.3,0.3-0.8,0.6-1.1,0.9c-0.1,0.1-0.3,0.3-0.2,0.4
	c0.1,0.1,0.3-0.1,0.4-0.2c0.2-0.2,0.4-0.4,0.7-0.6l0,0c-0.5,0.6-0.9,1.3-0.9,2.1c-0.1,0.9,0.6,1.5,1.6,1.5c1.4,0,2.9-0.8,3.8-1.5
	c0.2,0.1,0.7,0.1,0.9,0.1c0.3-0.1,0.9-0.4,1.4-0.8c0.4-0.3,0.9-0.7,1.2-1C64.6,34.4,64.6,34.2,64.5,34.1"/>
</svg>
