<?xml version="1.0" encoding="utf-8"?>
<!-- Generator: Adobe Illustrator 21.0.2, SVG Export Plug-In . SVG Version: 6.00 Build 0)  -->
<svg version="1.1" id="Layer_1" xmlns="http://www.w3.org/2000/svg" xmlns:xlink="http://www.w3.org/1999/xlink" x="0px" y="0px"
	 viewBox="0 0 45.4 45.4" style="enable-background:new 0 0 45.4 45.4;" xml:space="preserve">
<style type="text/css">
	.st0{fill:#0F86C8;}
</style>
<path class="st0" d="M45.4,45.4V0H0v45.4H45.4z M17,32.7h-5.3V16.9H17V32.7z M19.1,16.9h5.3v2c0.6-1.1,2.3-2.6,4.6-2.6
	c5,0,5.9,3.1,5.9,7.3v9.1h-5.3v-8.2c0-1.8,0.1-4.1-2.4-4.1s-2.8,2-2.8,4v8.2h-5.3C19.1,32.5,19.1,16.9,19.1,16.9z M14,8.6
	c1.6,0,2.8,1.3,2.8,2.8s-1.3,2.8-2.8,2.8s-2.8-1.3-2.8-2.8C11.3,10,12.4,8.6,14,8.6z"/>
</svg>
