<?xml version="1.0" encoding="utf-8"?>
<!-- Generator: Adobe Illustrator 21.0.2, SVG Export Plug-In . SVG Version: 6.00 Build 0)  -->
<svg version="1.1" id="Layer_1" xmlns="http://www.w3.org/2000/svg" xmlns:xlink="http://www.w3.org/1999/xlink" x="0px" y="0px"
	 viewBox="0 0 45.4 45.4" style="enable-background:new 0 0 45.4 45.4;" xml:space="preserve">
<style type="text/css">
	.st0{fill:#C71341;}
</style>
<path class="st0" d="M29.6,21.2l-9.4-5.8c-0.2-0.1-0.3-0.2-0.4-0.2c-0.2,0-0.3,0-0.5,0.1c-0.3,0.2-0.4,0.6-0.4,1.1v11.7
	c0,0.4,0,0.8,0.4,1.1c0.2,0.1,0.2,0.1,0.4,0.1c0.2,0,0.4-0.1,0.5-0.2l9.4-5.8c0.2-0.1,0.4-0.3,0.4-0.5c0-0.1,0.1-0.3,0.1-0.4
	C30.3,21.8,30,21.3,29.6,21.2z M0,0v45.4h45.4V0H0z M38.8,30.2c-0.4,1.8-1.8,3.1-3.5,3.3c-3.9,0.4-8.1,0.4-12.1,0.4s-8.2,0-12.2-0.4
	c-1.7-0.2-3.2-1.5-3.6-3.3c-0.5-2.5-0.5-5.3-0.5-7.9s0-5.4,0.6-7.9c0.4-1.8,1.8-3.1,3.5-3.3c3.9-0.4,8.1-0.4,12.2-0.4
	s8.2,0,12.2,0.4c1.7,0.2,3.2,1.5,3.6,3.3c0.5,2.5,0.5,5.3,0.5,7.9S39.4,27.6,38.8,30.2z"/>
</svg>
