<?xml version="1.0" encoding="utf-8"?>
<!-- Generator: Adobe Illustrator 21.0.2, SVG Export Plug-In . SVG Version: 6.00 Build 0)  -->
<svg version="1.1" id="Layer_1" xmlns="http://www.w3.org/2000/svg" xmlns:xlink="http://www.w3.org/1999/xlink" x="0px" y="0px"
	 viewBox="0 0 45.4 45.4" style="enable-background:new 0 0 45.4 45.4;" xml:space="preserve">
<style type="text/css">
	.st0{fill:#0F86C8;}
</style>
<path class="st0" d="M45.4,0H0v45.4h45.4V0z M37.2,16.6c0,0.3,0,0.6,0,0.8c0,9.2-7,19.7-19.7,19.7c-3.9,0-7.6-1.2-10.7-3.1
	c0.5,0.1,1.1,0.1,1.7,0.1c3.3,0,6.2-1.1,8.6-3C14,31,11.5,29,10.7,26.2c0.4,0.1,0.8,0.1,1.3,0.1c0.6,0,1.3-0.1,1.8-0.2
	c-3.2-0.6-5.6-3.5-5.6-6.8v-0.1c0.9,0.5,2,0.8,3.2,0.8c-1.9-1.3-3.1-3.4-3.1-5.8c0-1.3,0.3-2.4,0.9-3.5c3.4,4.2,8.5,7,14.2,7.3
	c-0.1-0.5-0.2-1.1-0.2-1.6c0-3.8,3.1-7,7-7c2,0,3.8,0.8,5.1,2.2c1.6-0.3,3.1-0.8,4.4-1.7c-0.5,1.6-1.6,3-3.1,3.8
	c1.4-0.2,2.7-0.5,4-1.1C39.8,14.3,38.5,15.5,37.2,16.6z"/>
</svg>
