<?xml version="1.0" encoding="utf-8"?>
<!-- Generator: Adobe Illustrator 21.0.2, SVG Export Plug-In . SVG Version: 6.00 Build 0)  -->
<svg version="1.1" id="Layer_1" xmlns="http://www.w3.org/2000/svg" xmlns:xlink="http://www.w3.org/1999/xlink" x="0px" y="0px"
	 viewBox="0 0 45.4 45.4" style="enable-background:new 0 0 45.4 45.4;" xml:space="preserve">
<style type="text/css">
	.st0{fill:#562583;}
</style>
<path class="st0" d="M22.9,17.2c3,0,5.4,2.4,5.4,5.4S25.8,28,22.9,28s-5.4-2.4-5.4-5.4S19.8,17.2,22.9,17.2z M35.5,13
	c-0.3-0.7-0.6-1.3-1.3-1.9c-0.5-0.5-1.2-0.9-1.9-1.3c-0.5-0.2-1.5-0.5-3.1-0.5c-1.7-0.1-2.2-0.1-6.5-0.1s-4.9,0-6.5,0.1
	s-2.4,0.3-3.1,0.5c-0.7,0.3-1.3,0.6-1.9,1.3c-0.5,0.5-0.9,1.2-1.3,1.9c-0.2,0.5-0.5,1.5-0.5,3.1c-0.1,1.7-0.1,2.2-0.1,6.5
	s0,4.9,0.1,6.5s0.3,2.4,0.5,3.1c0.3,0.7,0.6,1.3,1.3,1.9c0.5,0.5,1.2,0.9,1.9,1.3c0.5,0.2,1.5,0.5,3.1,0.5c1.7,0.1,2.2,0.1,6.5,0.1
	s4.9,0,6.5-0.1s2.4-0.3,3.1-0.5c0.7-0.3,1.3-0.6,1.9-1.3c0.5-0.5,0.9-1.2,1.3-1.9c0.2-0.5,0.5-1.5,0.5-3.1c0.1-1.7,0.1-2.2,0.1-6.5
	s0-4.9-0.1-6.5C36,14.5,35.7,13.5,35.5,13z M22.9,30.9c-4.6,0-8.3-3.7-8.3-8.3s3.7-8.3,8.3-8.3s8.3,3.7,8.3,8.3
	C31.2,27.1,27.3,30.9,22.9,30.9z M31.4,15.9c-1.1,0-2-0.8-2-2c0-1.1,0.8-1.9,2-1.9c1.1,0,1.9,0.8,1.9,1.9
	C33.4,15,32.5,15.9,31.4,15.9z M0,0v45.4h45.4V0H0z M38.9,29.2c-0.1,1.7-0.3,3-0.7,3.9c-0.4,1.1-0.9,2-1.9,2.8
	c-0.9,0.9-1.8,1.5-2.8,1.9s-2.2,0.6-3.9,0.7c-1.7,0.1-2.3,0.1-6.8,0.1s-5,0-6.8-0.1c-1.7-0.1-3-0.3-3.9-0.7c-1.1-0.4-2-0.9-2.8-1.9
	c-0.9-0.9-1.5-1.8-1.9-2.8C7,32,6.8,30.9,6.7,29.2c-0.1-1.7-0.1-2.3-0.1-6.8s0-5,0.1-6.8c0.1-1.7,0.3-3,0.7-3.9
	c0.4-1.1,0.9-2,1.9-2.8c0.9-0.8,1.8-1.5,2.8-1.9c1.1-0.4,2.2-0.6,3.9-0.7s2.3-0.1,6.8-0.1s5,0,6.8,0.1c1.7,0.1,3,0.3,3.9,0.7
	c1.1,0.4,2,0.9,2.8,1.9c0.9,0.9,1.5,1.8,1.9,2.8s0.6,2.2,0.7,3.9C39,17.3,39,18,39,22.5C39.1,27.1,39.1,27.6,38.9,29.2z"/>
</svg>
