<?xml version="1.0" encoding="utf-8"?>
<!-- Generator: Adobe Illustrator 21.0.2, SVG Export Plug-In . SVG Version: 6.00 Build 0)  -->
<svg version="1.1" id="Layer_1" xmlns="http://www.w3.org/2000/svg" xmlns:xlink="http://www.w3.org/1999/xlink" x="0px" y="0px"
	 viewBox="0 0 45.4 45.4" style="enable-background:new 0 0 45.4 45.4;" xml:space="preserve">
<style type="text/css">
	.st0{fill:#202B51;}
</style>
<path class="st0" d="M45.4,45.4V0H0v45.4H45.4z M27.4,20v-4.7c0-3.5,2.3-6.9,7.5-6.9l0,0l0,0c1.5,0,2.6,0.2,3.2,0.3
	c0.3,0,0.4,0.1,0.4,0.1v0.5l-0.1,4.3c0,0-3.1,0-3.6,0c-1.9,0-2.2,0.8-2.2,2.2V16v3.8h5.9L38.3,24h-5.6v14.8h-5.3V24.2h-3.2V20H27.4
	L27.4,20z"/>
</svg>
