<?xml version="1.0" encoding="utf-8"?>
<!-- Generator: Adobe Illustrator 21.0.2, SVG Export Plug-In . SVG Version: 6.00 Build 0)  -->
<svg version="1.1" id="Layer_1" xmlns="http://www.w3.org/2000/svg" xmlns:xlink="http://www.w3.org/1999/xlink" x="0px" y="0px"
	 viewBox="0 0 45.4 45.4" style="enable-background:new 0 0 45.4 45.4;" xml:space="preserve">
<style type="text/css">
	.st0{fill:#AADB1E;}
</style>
<title>Asset 2</title>
<g id="Layer_2">
	<g id="Layer_1-2">
		<path class="st0" d="M11.9,13.7c-0.9,0-1.7,0.7-1.7,1.6c0,0,0,0,0,0c-0.1,0.9,0.6,1.7,1.5,1.7c0,0,0.1,0,0.1,0
			c0.9,0,1.7-0.7,1.7-1.6C13.6,14.5,12.8,13.7,11.9,13.7z M22.4,17c0.9,0,1.6-0.7,1.6-1.6c0-0.9-0.7-1.6-1.6-1.6c0,0,0,0,0,0
			c-0.9,0-1.6,0.8-1.6,1.7C20.7,16.3,21.5,17,22.4,17z M25.4,24.2c-0.8-0.1-1.4,0.5-1.5,1.2c-0.1,0.8,0.5,1.4,1.2,1.5
			c0.1,0,0.2,0,0.2,0c0.8,0.1,1.4-0.5,1.5-1.2c0.1-0.8-0.5-1.4-1.2-1.5C25.6,24.2,25.5,24.2,25.4,24.2z M0,0v45.4h45.4V0H0z
			 M13.4,29.7c-0.5-0.1-0.9,0-1.4,0.2c-1.3,0.7-2.5,1.5-3.9,2.4c0.3-1.2,0.4-2.2,0.7-3.3c0.3-0.6,0-1.3-0.6-1.6
			C3.9,24.4,2,19.7,3.4,14.9c1.3-4.4,4.4-7.1,8.7-8.5c5.8-1.9,12.2-0.1,16,4.7c1.3,1.7,2.1,3.7,2.3,5.8c-3.5,0-6.9,1.4-9.4,3.8
			c-2.6,2.4-3.9,6-3.5,9.5C16,30,14.7,29.8,13.4,29.7z M39.2,35.7c-1.1,1-1.5,1.8-0.8,3.2c0.1,0.3,0.2,0.6,0.2,0.9
			c-1-0.6-2.2-1.1-3.4-1.4c-1.1-0.1-2.3,0.5-3.5,0.7c-3.5,0.4-6.9-0.7-9.5-3.1c-5-4.7-4.3-11.9,1.5-15.7c5.2-3.4,12.8-2.3,16.5,2.5
			C43.5,26.6,43.1,32.4,39.2,35.7L39.2,35.7z M33.9,24.2c-0.7,0-1.3,0.6-1.3,1.3c0,0.7,0.6,1.4,1.3,1.4c0.7,0,1.4-0.6,1.4-1.3
			C35.3,24.8,34.7,24.2,33.9,24.2C34,24.2,33.9,24.2,33.9,24.2z"/>
	</g>
</g>
</svg>
